<svg width="38" height="39" viewBox="0 0 38 39" fill="none" xmlns="http://www.w3.org/2000/svg">
<path d="M5 10.1595C5 10.1595 5 26.6253 5 29.5657C5 32.506 8.25439 36.1814 11.7358 36.1814C12.7197 36.1814 24.829 36.1814 26.267 36.1814C29.6055 36.1814 32.8515 32.4325 32.8515 29.9332C32.8515 27.4339 32.8515 10.3065 32.8515 10.3065M13.4765 12.5853C13.4765 12.5853 13.4765 11.5646 13.4765 10.3064M24.375 12.5853C24.375 12.5853 24.375 11.5459 24.375 10.3064M13.4765 10.3064C13.4765 9.15327 13.4765 7.80065 13.4765 6.85153C13.4765 4.86681 15.52 1.99996 18.9257 2C22.3315 2.00004 24.375 5.23435 24.375 6.85153C24.375 7.65608 24.375 9.07927 24.375 10.3064M13.4765 10.3064H21.8774M24.375 10.3064H30.4296M7.42187 10.3064H11.0547M30.4296 26.7722V26.8457M30.4296 29.198C30.4296 30.2271 30.248 31.0945 29.2187 32.2118C27.9321 33.6084 26.8725 33.682 26.267 33.7555C25.7864 33.8138 16.8066 33.829 12.3413 33.829" stroke="black" stroke-width="1.02367" stroke-linecap="round"/>
</svg>
