<svg width="34" height="34" viewBox="0 0 34 34" fill="none" xmlns="http://www.w3.org/2000/svg">
<path d="M6.6 27C5.885 27 5.27313 26.7432 4.7644 26.2296C4.2548 25.7151 4 25.0969 4 24.375V8.625C4 7.90312 4.2548 7.28537 4.7644 6.77175C5.27313 6.25725 5.885 6 6.6 6H27.4C28.115 6 28.7273 6.25725 29.2369 6.77175C29.7456 7.28537 30 7.90312 30 8.625V24.375C30 25.0969 29.7456 25.7151 29.2369 26.2296C28.7273 26.7432 28.115 27 27.4 27H6.6ZM17 17.8125L6.6 11.25V24.375H27.4V11.25L17 17.8125ZM17 15.1875L27.4 8.625H6.6L17 15.1875ZM6.6 11.25V8.625V24.375V11.25Z" fill="#434343"/>
</svg>
