<svg width="39" height="39" viewBox="0 0 39 39" fill="none" xmlns="http://www.w3.org/2000/svg">
<path d="M33.4283 6.79374C32.5625 5.9098 31.5263 5.20706 30.3813 4.72717C29.2362 4.24728 28.0055 4 26.7622 4C25.5189 4 24.2882 4.24728 23.1432 4.72717C21.9981 5.20706 20.9619 5.9098 20.0961 6.79374C19.2303 5.9098 18.1941 5.20706 17.0491 4.72717C15.904 4.24728 14.6733 4 13.43 4C12.1867 4 10.956 4.24728 9.81097 4.72717C8.66591 5.20706 7.62975 5.9098 6.76392 6.79374C4.9916 8.59876 4 11.0175 4 13.5356C4 16.0536 4.9916 18.4724 6.76392 20.2774L20.0961 33.7505L33.4283 20.2668C35.1974 18.4623 36.187 16.0458 36.187 13.5303C36.187 11.0148 35.1974 8.59827 33.4283 6.79374Z" stroke="black" stroke-width="1.02544" stroke-linecap="round" stroke-linejoin="round"/>
<path d="M30.8219 13.5621C30.8219 12.4349 30.3699 11.3539 29.5653 10.5568C28.7607 9.75974 27.6695 9.31195 26.5316 9.31195" stroke="black" stroke-width="1.02544" stroke-linecap="round" stroke-linejoin="round"/>
</svg>
