<svg width="34" height="34" viewBox="0 0 34 34" fill="none" xmlns="http://www.w3.org/2000/svg">
<path d="M22.0469 6.10938C23.5967 6.10938 25.0831 6.72505 26.179 7.82097C27.2749 8.91689 27.8906 10.4033 27.8906 11.9531V22.0469C27.8906 23.5967 27.2749 25.0831 26.179 26.179C25.0831 27.2749 23.5967 27.8906 22.0469 27.8906H11.9531C10.4033 27.8906 8.91689 27.2749 7.82097 26.179C6.72505 25.0831 6.10938 23.5967 6.10938 22.0469V11.9531C6.10938 10.4033 6.72505 8.91689 7.82097 7.82097C8.91689 6.72505 10.4033 6.10938 11.9531 6.10938H22.0469ZM22.0469 3.98438H11.9531C9.84162 3.99068 7.8184 4.83227 6.32533 6.32533C4.83227 7.8184 3.99068 9.84162 3.98438 11.9531V22.0469C3.99068 24.1584 4.83227 26.1816 6.32533 27.6747C7.8184 29.1677 9.84162 30.0093 11.9531 30.0156H22.0469C24.1584 30.0093 26.1816 29.1677 27.6747 27.6747C29.1677 26.1816 30.0093 24.1584 30.0156 22.0469V11.9531C30.0093 9.84162 29.1677 7.8184 27.6747 6.32533C26.1816 4.83227 24.1584 3.99068 22.0469 3.98438Z" fill="#434343"/>
<path d="M23.9434 8.5C23.6424 8.5 23.3481 8.58927 23.0978 8.75651C22.8475 8.92375 22.6524 9.16146 22.5372 9.43958C22.422 9.71769 22.3919 10.0237 22.4506 10.319C22.5094 10.6142 22.6543 10.8854 22.8672 11.0983C23.08 11.3111 23.3512 11.4561 23.6465 11.5148C23.9417 11.5735 24.2478 11.5434 24.5259 11.4282C24.804 11.313 25.0417 11.1179 25.2089 10.8676C25.3762 10.6173 25.4654 10.3231 25.4654 10.022C25.4654 9.82216 25.4261 9.62424 25.3496 9.43958C25.2731 9.25491 25.161 9.08713 25.0197 8.94579C24.8783 8.80446 24.7105 8.69235 24.5259 8.61586C24.3412 8.53937 24.1433 8.5 23.9434 8.5Z" fill="#434343"/>
<path d="M17.0717 12.3435C18.0008 12.343 18.9091 12.618 19.6818 13.1339C20.4545 13.6497 21.0568 14.3831 21.4126 15.2414C21.7684 16.0996 21.8616 17.0441 21.6805 17.9553C21.4994 18.8665 21.0521 19.7036 20.3951 20.3605C19.7382 21.0175 18.9011 21.4648 17.9899 21.6459C17.0787 21.827 16.1342 21.7338 15.276 21.378C14.4177 21.0223 13.6843 20.4199 13.1685 19.6472C12.6526 18.8745 12.3776 17.9662 12.3781 17.0371C12.3802 15.7929 12.8754 14.6003 13.7552 13.7206C14.6349 12.8408 15.8275 12.3456 17.0717 12.3435ZM17.0717 10.2185C15.723 10.2211 14.4054 10.6235 13.2854 11.3747C12.1653 12.126 11.2931 13.1924 10.7789 14.4392C10.2647 15.686 10.1317 17.0572 10.3966 18.3796C10.6615 19.702 11.3125 20.9162 12.2673 21.8687C13.222 22.8213 14.4377 23.4694 15.7607 23.7312C17.0837 23.9931 18.4547 23.8568 19.7003 23.3397C20.9459 22.8227 22.0102 21.9479 22.7589 20.8261C23.5075 19.7043 23.9068 18.3858 23.9062 17.0371C23.9059 16.1404 23.7288 15.2526 23.385 14.4245C23.0412 13.5963 22.5375 12.8441 21.9027 12.2108C21.2679 11.5775 20.5145 11.0755 19.6855 10.7337C18.8566 10.3918 17.9684 10.2168 17.0717 10.2185Z" fill="#434343"/>
</svg>
