<svg width="29" height="30" viewBox="0 0 29 30" fill="none" xmlns="http://www.w3.org/2000/svg">
<g clip-path="url(#clip0_218_184)">
<path fill-rule="evenodd" clip-rule="evenodd" d="M23.5473 7.49342C23.5473 8.42551 22.7917 9.18093 21.8598 9.18093C20.9279 9.18093 20.1723 8.42551 20.1723 7.49342C20.1723 6.56133 20.9279 5.80591 21.8598 5.80591C22.7919 5.80591 23.5473 6.56133 23.5473 7.49342ZM14.3532 19.6875C11.7644 19.6875 9.66577 17.5888 9.66577 15C9.66577 12.4112 11.7644 10.3125 14.3532 10.3125C16.9421 10.3125 19.0407 12.4112 19.0407 15C19.0407 17.5888 16.9421 19.6875 14.3532 19.6875ZM14.3532 7.77863C10.3649 7.77863 7.13187 11.0117 7.13187 15C7.13187 18.9883 10.3649 22.2214 14.3532 22.2214C18.3415 22.2214 21.5746 18.9883 21.5746 15C21.5746 11.0117 18.3415 7.77863 14.3532 7.77863ZM14.3532 3.47129C18.1082 3.47129 18.5529 3.48558 20.0356 3.55325C21.4067 3.61587 22.1514 3.84483 22.6469 4.03753C23.3032 4.29264 23.7717 4.5974 24.2639 5.08959C24.7561 5.58156 25.0608 6.05003 25.3159 6.70657C25.5084 7.20206 25.7376 7.94672 25.8002 9.31783C25.8679 10.8008 25.8822 11.2455 25.8822 15.0004C25.8822 18.7554 25.8679 19.2001 25.8002 20.6828C25.7376 22.0539 25.5086 22.7986 25.3159 23.2941C25.0608 23.9504 24.7561 24.4189 24.2639 24.9111C23.7719 25.4033 23.3034 25.708 22.6469 25.9631C22.1514 26.1556 21.4067 26.3848 20.0356 26.4474C18.5529 26.5151 18.1082 26.5294 14.3532 26.5294C10.5981 26.5294 10.1533 26.5151 8.67062 26.4474C7.29952 26.3848 6.55486 26.1558 6.05937 25.9631C5.40304 25.708 4.93458 25.4033 4.44239 24.9111C3.95042 24.4191 3.64544 23.9506 3.39033 23.2941C3.19785 22.7986 2.96867 22.0539 2.90605 20.6828C2.83837 19.1999 2.82409 18.7552 2.82409 15.0004C2.82409 11.2455 2.83837 10.8008 2.90605 9.31783C2.96867 7.94672 3.19763 7.20206 3.39033 6.70657C3.64544 6.05024 3.9502 5.58178 4.44239 5.08959C4.93436 4.5974 5.40282 4.29264 6.05937 4.03753C6.55486 3.84505 7.29952 3.61587 8.67062 3.55325C10.1536 3.48558 10.5983 3.47129 14.3532 3.47129ZM14.3532 0.937386C10.5341 0.937386 10.0551 0.953645 8.55527 1.02198C7.05848 1.09032 6.03608 1.32806 5.14179 1.67567C4.21695 2.03493 3.43274 2.51591 2.65094 3.29771C1.86915 4.0795 1.38817 4.86371 1.02891 5.78855C0.6813 6.68306 0.443554 7.70524 0.375218 9.20203C0.306883 10.7019 0.290623 11.1809 0.290623 15C0.290623 18.8191 0.306883 19.2981 0.375218 20.798C0.443554 22.2948 0.6813 23.3169 1.02891 24.2115C1.38817 25.1363 1.86915 25.9205 2.65094 26.7023C3.43274 27.4841 4.21695 27.9649 5.14179 28.3243C6.0363 28.6719 7.05848 28.9097 8.55527 28.978C10.0551 29.0464 10.5341 29.0626 14.3532 29.0626C18.1723 29.0626 18.6513 29.0464 20.1512 28.978C21.648 28.9097 22.6702 28.6719 23.5647 28.3243C24.4895 27.9649 25.2737 27.4841 26.0555 26.7023C26.8373 25.9205 27.3181 25.1363 27.6776 24.2115C28.0252 23.3169 28.2629 22.2948 28.3313 20.798C28.3996 19.2981 28.4159 18.8191 28.4159 15C28.4159 11.1809 28.3996 10.7019 28.3313 9.20203C28.2629 7.70524 28.0252 6.68306 27.6776 5.78855C27.3181 4.86371 26.8373 4.0795 26.0555 3.29771C25.2737 2.51591 24.4895 2.03515 23.5647 1.67567C22.6702 1.32806 21.648 1.09032 20.1512 1.02198C18.6513 0.953645 18.1723 0.937386 14.3532 0.937386Z" fill="url(#paint0_radial_218_184)"/>
</g>
<defs>
<radialGradient id="paint0_radial_218_184" cx="0" cy="0" r="1" gradientUnits="userSpaceOnUse" gradientTransform="translate(4.48987 29.1603) scale(35.937)">
<stop stop-color="#FFB140"/>
<stop offset="0.2559" stop-color="#FF5445"/>
<stop offset="0.599" stop-color="#FC2B82"/>
<stop offset="1" stop-color="#8E40B7"/>
</radialGradient>
<clipPath id="clip0_218_184">
<rect width="28.1252" height="28.1252" fill="white" transform="translate(0.290623 0.937386)"/>
</clipPath>
</defs>
</svg>
