<svg width="34" height="34" viewBox="0 0 34 34" fill="none" xmlns="http://www.w3.org/2000/svg">
<path d="M16.5 17.5C17.4281 17.5 18.2229 17.1766 18.8844 16.5298C19.5448 15.8841 19.875 15.1075 19.875 14.2C19.875 13.2925 19.5448 12.5153 18.8844 11.8685C18.2229 11.2228 17.4281 10.9 16.5 10.9C15.5719 10.9 14.7776 11.2228 14.1173 11.8685C13.4558 12.5153 13.125 13.2925 13.125 14.2C13.125 15.1075 13.4558 15.8841 14.1173 16.5298C14.7776 17.1766 15.5719 17.5 16.5 17.5ZM16.5 29.6275C19.9312 26.5475 22.4766 23.7491 24.1359 21.2323C25.7953 18.7166 26.625 16.4825 26.625 14.53C26.625 11.5325 25.6474 9.07785 23.6921 7.16605C21.738 5.25535 19.3406 4.3 16.5 4.3C13.6594 4.3 11.2614 5.25535 9.30619 7.16605C7.35206 9.07785 6.375 11.5325 6.375 14.53C6.375 16.4825 7.20469 18.7166 8.86406 21.2323C10.5234 23.7491 13.0688 26.5475 16.5 29.6275ZM16.5 34C11.9719 30.2325 8.59012 26.7328 6.35475 23.501C4.11825 20.2703 3 17.28 3 14.53C3 10.405 4.35731 7.11875 7.07194 4.67125C9.78544 2.22375 12.9281 1 16.5 1C20.0719 1 23.2146 2.22375 25.9281 4.67125C28.6427 7.11875 30 10.405 30 14.53C30 17.28 28.8823 20.2703 26.6469 23.501C24.4104 26.7328 21.0281 30.2325 16.5 34Z" fill="#434343"/>
</svg>
