<svg width="181" height="106" viewBox="0 0 181 106" fill="none" xmlns="http://www.w3.org/2000/svg">
<path d="M134.616 4.03018C134.794 4.0294 134.794 4.0294 134.977 4.0286C135.229 4.02781 135.481 4.02745 135.733 4.02747C136.114 4.02713 136.494 4.0243 136.874 4.02133C140.084 4.00953 143.074 4.67478 145.468 6.96211C148.344 9.9135 149.175 13.6793 149.726 17.6436C149.752 17.8264 149.778 18.0092 149.805 18.1976C150.049 20.0705 150.104 21.9271 150.13 23.8143C150.136 24.1555 150.142 24.4968 150.148 24.838C150.221 29.2693 150.248 33.7013 150.28 38.133C150.286 39.0716 150.294 40.0102 150.301 40.9488C150.305 41.4676 150.309 41.9863 150.312 42.5051C150.164 45.0541 150.164 45.0541 150.661 47.4729C151.404 47.4071 151.89 47.0859 152.374 46.5358C153.231 45.3028 153.085 43.8034 153.081 42.371C153.083 42.1016 153.084 41.8322 153.087 41.5629C153.092 40.8559 153.093 40.1489 153.094 39.4419C153.095 38.3134 153.101 37.185 153.108 36.0566C153.11 35.6661 153.11 35.2757 153.11 34.8852C153.116 32.0536 153.373 29.6584 155.424 27.5125C156.975 26.1028 158.715 25.6776 160.765 25.7061C161.012 25.7085 161.012 25.7085 161.264 25.7109C163.652 25.7585 165.398 26.4229 167.155 28.0694C168.513 29.5259 169.513 31.7867 169.531 33.8044C169.532 33.9425 169.534 34.0806 169.535 34.2228C169.536 34.3717 169.537 34.5205 169.538 34.6739C169.539 34.8294 169.54 34.9849 169.541 35.1451C169.544 35.6493 169.545 36.1535 169.545 36.6578C169.545 36.8285 169.545 36.9992 169.545 37.1751C169.544 39.5931 169.521 41.9709 169.039 44.3494C169.004 44.5224 169.004 44.5224 168.968 44.699C168.814 45.425 168.625 46.1359 168.416 46.8482C168.386 46.9519 168.355 47.0557 168.324 47.1626C168.11 47.8958 167.878 48.6223 167.637 49.347C167.58 49.5223 167.523 49.6977 167.464 49.8783C166.661 52.1588 165.274 53.9074 163.588 55.5939C163.482 55.7015 163.377 55.809 163.268 55.9197C161.188 57.8943 158.271 59.0034 155.463 59.1106C154.845 59.1418 154.312 59.1756 153.776 59.4983C153.407 60.1767 153.421 60.8507 153.426 61.6036C153.426 61.8011 153.426 61.8011 153.426 62.0026C153.425 62.4382 153.427 62.8738 153.428 63.3093C153.429 63.6151 153.429 63.9209 153.429 64.2267C153.429 64.8693 153.43 65.512 153.432 66.1546C153.435 66.9681 153.435 67.7817 153.435 68.5952C153.435 69.2284 153.436 69.8615 153.437 70.4947C153.438 70.7939 153.438 71.0932 153.438 71.3924C153.44 72.9929 153.464 74.5899 153.535 76.1889C153.541 76.3297 153.547 76.4704 153.553 76.6154C153.608 77.7628 153.746 78.8817 153.931 80.0157C154.169 81.5602 154.35 83.0799 154.399 84.6424C154.481 84.5983 154.563 84.5543 154.648 84.5089C155.029 84.3056 155.41 84.1031 155.791 83.9006C155.92 83.8313 156.049 83.762 156.183 83.6907C156.825 83.3498 157.457 83.039 158.134 82.7738C158.616 82.562 158.732 82.5026 159.011 82.0332C159.047 81.8731 159.083 81.7131 159.12 81.5482C159.163 81.3696 159.207 81.191 159.252 81.0071C159.295 80.8152 159.338 80.6233 159.383 80.4257C159.439 80.2201 159.498 80.0149 159.557 79.8101C160.095 78.2083 160.095 78.2083 159.812 76.6195C159.728 76.513 159.644 76.4065 159.558 76.2968C158.606 75.082 158.711 73.6598 158.721 72.1875C158.719 72.0002 158.718 71.813 158.717 71.6201C158.721 69.9486 158.822 68.3401 159.606 66.8385C159.66 66.7336 159.714 66.6288 159.77 66.5207C160.617 64.9515 161.969 63.4086 163.588 62.6218C163.993 62.5687 163.993 62.5687 164.366 62.6218C165.659 63.8079 166.324 65.5155 166.412 67.2485C166.411 67.4321 166.411 67.4321 166.41 67.6194C166.411 67.7418 166.411 67.8642 166.412 67.9903C166.386 68.4942 166.306 68.994 166.235 69.4935C167.006 69.3904 167.777 69.2873 168.571 69.1811C168.735 72.0873 167.688 74.4278 166.121 76.808C165.189 78.206 165.189 78.206 164.834 79.801C166.16 78.7064 167.262 77.4846 168.24 76.0723C169.456 74.3284 170.818 72.8381 172.621 71.6799C172.753 71.5941 172.886 71.5084 173.023 71.42C174.564 70.6103 176.532 70.7526 178.228 70.899C178.33 70.9506 178.433 71.0021 178.539 71.0552C178.378 73.4171 176.885 75.6728 175.268 77.3022C175.167 77.4097 175.065 77.5172 174.96 77.628C173.887 78.6808 172.55 79.2951 171.219 79.9571C171.219 80.0602 171.219 80.1633 171.219 80.2695C171.354 80.3186 171.49 80.3677 171.629 80.4184C173.412 81.0822 173.412 81.0822 174.178 81.6751C173.94 82.3063 173.502 82.6464 172.981 83.0416C172.848 83.1429 172.848 83.1429 172.713 83.2463C172.043 83.7428 171.349 84.1697 170.616 84.5643C170.521 84.6152 170.427 84.6661 170.33 84.7185C169.379 85.2099 168.563 85.4404 167.496 85.433C167.329 85.432 167.161 85.431 166.989 85.43C166.642 85.4255 166.295 85.4161 165.949 85.4019C164.976 85.398 164.976 85.398 164.179 85.8984C163.894 86.3003 163.658 86.7033 163.432 87.1412C163.371 87.2463 163.31 87.3514 163.247 87.4598C163.097 87.7203 162.957 87.987 162.819 88.2539C162.727 88.4283 162.636 88.6026 162.542 88.7822C162.443 88.9749 162.443 88.9749 162.342 89.1714C162.492 89.1678 162.642 89.1642 162.797 89.1605C163.092 89.1562 163.092 89.1562 163.393 89.1519C163.588 89.1483 163.783 89.1447 163.984 89.1409C164.48 89.169 164.735 89.2199 165.145 89.4838C164.92 90.2173 164.489 90.6828 163.967 91.2212C163.12 92.1176 162.325 93.0421 161.563 94.0128C161.466 94.136 161.369 94.2593 161.269 94.3862C160.799 94.9228 160.799 94.9228 160.628 95.5746C160.735 95.5871 160.842 95.5997 160.951 95.6126C166.367 96.2528 166.367 96.2528 167.468 96.5804C168.18 96.7722 168.909 96.8979 169.632 97.0387C169.979 97.1077 170.326 97.1768 170.673 97.2461C170.844 97.2803 171.015 97.3144 171.191 97.3495C171.354 97.3823 171.518 97.415 171.686 97.4487C171.908 97.4929 171.908 97.4929 172.134 97.5381C172.524 97.6169 172.913 97.6982 173.302 97.7805C173.417 97.8034 173.531 97.8262 173.649 97.8497C174.211 97.971 174.606 98.0659 174.957 98.5419C174.373 99.0104 174.373 99.0104 174.022 99.0104C174.022 99.1135 174.022 99.2166 174.022 99.3228C174.331 99.3743 174.639 99.4258 174.957 99.4789C175.008 99.6851 175.06 99.8912 175.113 100.104C174.499 100.388 173.975 100.467 173.302 100.504C172.771 100.534 172.348 100.559 171.842 100.728C171.996 100.831 172.15 100.934 172.309 101.041C172.258 101.195 172.206 101.35 172.154 101.509C171.396 101.829 170.668 101.997 169.857 102.13C168.923 102.284 168.163 102.452 167.325 102.925C166.625 103.312 166.044 103.466 165.25 103.553C165.141 103.565 165.033 103.577 164.922 103.59C164.581 103.627 164.24 103.662 163.899 103.696C163.793 103.707 163.687 103.718 163.577 103.729C162.816 103.807 162.053 103.875 161.29 103.94C161.172 103.95 161.053 103.96 160.931 103.97C158.493 104.175 156.057 104.249 153.611 104.299C152.679 104.319 151.748 104.352 150.817 104.398C150.695 104.404 150.573 104.41 150.447 104.415C149.865 104.441 149.865 104.441 149.296 104.556C148.48 104.736 147.609 104.662 146.775 104.662C146.424 104.662 146.074 104.665 145.723 104.668C144.627 104.672 143.571 104.637 142.484 104.479C140.546 104.209 138.584 104.26 136.632 104.249C134.804 104.237 133.002 104.2 131.19 103.944C131.052 103.925 130.915 103.905 130.773 103.885C129.833 103.737 129.833 103.737 129.48 103.383C129.382 102.973 129.382 102.973 129.324 102.602C128.56 102.423 127.787 102.369 127.007 102.3C122.191 101.852 122.191 101.852 121.05 100.982C120.758 100.572 120.758 100.572 120.785 100.195C121.12 99.144 122.134 98.5134 123.065 98.0246C123.932 97.6181 124.809 97.3462 125.742 97.1363C125.648 97.0479 125.648 97.0479 125.553 96.9576C124.86 96.2856 124.254 95.5668 123.65 94.8157C121.967 92.7371 120.163 90.7426 118.266 88.8591C117.712 88.3078 117.181 87.7651 116.709 87.1412C116.76 86.9866 116.811 86.8319 116.864 86.6726C117.239 86.5191 117.239 86.5191 117.731 86.3878C117.906 86.3399 118.082 86.2921 118.262 86.2429C118.446 86.1946 118.631 86.1464 118.821 86.0968C119.098 86.0217 119.098 86.0217 119.382 85.9452C119.84 85.8215 120.299 85.6997 120.758 85.5794C120.557 84.9462 120.324 84.4277 119.979 83.8615C119.979 83.7584 119.979 83.6554 119.979 83.5492C120.737 83.5085 121.312 83.6455 122.027 83.8908C122.129 83.9255 122.232 83.9601 122.337 83.9958C122.661 84.1059 122.985 84.2179 123.308 84.33C123.529 84.4054 123.75 84.4806 123.971 84.5558C124.51 84.7393 125.048 84.9246 125.586 85.1109C125.55 84.9454 125.514 84.7799 125.477 84.6094C125.062 82.6403 125.07 80.7135 125.119 78.7078C125.478 78.5816 125.669 78.5236 126.031 78.6623C126.177 78.7528 126.177 78.7528 126.327 78.845C126.437 78.9118 126.548 78.9785 126.662 79.0473C126.833 79.1546 126.833 79.1546 127.007 79.2641C127.118 79.3315 127.228 79.3988 127.342 79.4682C127.569 79.607 127.796 79.7467 128.023 79.8871C128.661 80.2806 129.304 80.665 129.947 81.0504C129.926 80.9233 129.905 80.7963 129.883 80.6654C129.431 77.9363 129.015 75.21 128.701 72.4608C128.585 72.4883 128.469 72.5159 128.349 72.5443C127.818 72.6701 127.286 72.7948 126.754 72.9195C126.571 72.9629 126.389 73.0063 126.2 73.051C121.957 74.0432 117.236 74.0224 113.438 71.6799C112.331 70.9733 111.554 70.0881 110.79 69.0249C110.699 68.9003 110.608 68.7757 110.514 68.6473C109.668 67.4091 109.13 66.0381 108.578 64.6505C108.481 64.408 108.382 64.1668 108.281 63.9261C107.932 62.9992 107.732 62.0254 107.52 61.0601C107.49 60.9306 107.461 60.8011 107.43 60.6676C106.928 58.3741 106.828 56.1079 106.809 53.7687C106.806 53.5574 106.806 53.5574 106.802 53.3418C106.764 50.5405 107.307 48.4883 109.233 46.3797C109.624 46.0134 110.021 45.7195 110.479 45.4426C110.589 45.3728 110.699 45.3029 110.813 45.2309C112.166 44.4209 113.496 44.1097 115.064 44.1347C115.207 44.136 115.35 44.1374 115.497 44.1388C116.528 44.1611 117.46 44.2674 118.422 44.6617C118.585 44.7243 118.585 44.7243 118.751 44.788C120.318 45.4743 121.657 46.8993 122.316 48.4712C122.697 49.4717 122.948 50.463 123.143 51.5139C123.174 51.6761 123.206 51.8383 123.238 52.0054C123.417 52.938 123.59 53.8719 123.761 54.806C123.856 55.3188 123.951 55.8316 124.046 56.3443C124.115 56.7171 124.182 57.0901 124.249 57.4631C124.603 60.1783 124.603 60.1783 126.053 62.3094C126.466 62.5951 126.831 62.6496 127.321 62.7072C127.519 62.7306 127.718 62.7539 127.922 62.778C127.862 61.9534 127.801 61.1289 127.74 60.3044C127.719 60.025 127.698 59.7456 127.678 59.4662C127.583 58.1537 127.487 56.8461 127.302 55.5427C127.099 54.1056 126.994 52.6613 126.881 51.2148C126.55 47.037 126.112 42.8845 125.586 38.7271C125.557 38.4944 125.557 38.4944 125.527 38.257C125.326 36.6705 125.115 35.0868 124.872 33.5063C124.667 32.1712 124.519 30.8387 124.398 29.4933C124.361 29.0862 124.323 28.6791 124.285 28.272C124.27 28.0972 124.254 27.9224 124.237 27.7424C124.209 27.441 124.181 27.1397 124.144 26.8392C124.004 25.6233 124 24.4088 123.997 23.1866C123.996 23.015 123.996 23.015 123.996 22.8401C123.993 22.2347 123.992 21.6293 123.991 21.0239C123.99 20.4065 123.987 19.7892 123.982 19.1718C123.979 18.69 123.978 18.2081 123.978 17.7262C123.978 17.499 123.977 17.2718 123.974 17.0446C123.943 13.2871 124.898 9.89269 127.562 7.14085C129.462 5.26389 131.931 4.0343 134.616 4.03018Z" fill="#2B7042"/>
<path d="M157.409 36.7414C157.495 36.7782 157.581 36.8151 157.669 36.853C157.859 37.6919 157.859 37.6919 157.699 38.1512C157.514 38.4148 157.514 38.4148 157.202 38.5709C156.936 38.5819 156.67 38.5841 156.404 38.5807C156.262 38.5793 156.12 38.5779 155.974 38.5764C155.866 38.5746 155.757 38.5728 155.645 38.5709C155.593 38.3132 155.542 38.0556 155.489 37.7901C155.734 37.6022 155.981 37.4173 156.229 37.2337C156.366 37.1304 156.503 37.0271 156.645 36.9207C157.046 36.6968 157.046 36.6968 157.409 36.7414Z" fill="#2B7042"/>
<path d="M129.48 10.7719C129.554 11.6116 129.554 11.6116 129.256 12.0018C128.662 12.2633 128.094 12.2145 127.455 12.1775C127.474 11.8261 127.474 11.8261 127.611 11.3966C128.234 10.8585 128.661 10.6937 129.48 10.7719Z" fill="#2B7042"/>
<path d="M157.202 32.0117C157.514 32.324 157.514 32.324 157.543 32.7242C157.514 33.1049 157.514 33.1049 157.358 33.261C156.464 33.3037 156.464 33.3037 156.112 33.261C156.009 33.158 155.906 33.0549 155.8 32.9487C155.839 32.5485 155.839 32.5485 155.956 32.1678C156.386 31.9521 156.727 31.9819 157.202 32.0117Z" fill="#2B7042"/>
<path d="M134.152 16.238C134.269 16.5113 134.269 16.5113 134.308 16.8627C133.997 17.2815 133.77 17.4588 133.276 17.6241C133.154 17.6305 133.032 17.637 132.906 17.6436C132.803 17.5405 132.7 17.4375 132.594 17.3313C132.624 16.9408 132.624 16.9408 132.75 16.5504C133.285 16.1927 133.527 16.2102 134.152 16.238Z" fill="#2B7042"/>
<path d="M133.996 22.6412C134.317 22.7485 134.317 22.7485 134.619 22.9535C134.765 23.2561 134.765 23.2561 134.775 23.5782C134.619 23.8515 134.619 23.8515 134.308 24.0467C133.733 24.076 133.733 24.076 133.217 24.0467C133.101 23.7734 133.101 23.7734 133.062 23.422C133.35 23.0732 133.592 22.8439 133.996 22.6412Z" fill="#2B7042"/>
<path d="M137.744 5.14961C139.936 6.64622 140.775 10.1031 141.256 12.5675C141.843 15.8865 141.905 19.2981 142.072 22.6583C142.093 23.0799 142.116 23.5014 142.139 23.923C142.253 26.0443 142.29 28.1652 142.32 30.2891C142.335 31.3113 142.351 32.3334 142.368 33.3556C142.371 33.554 142.375 33.7525 142.378 33.9569C142.455 41.2583 142.455 41.2583 143.278 48.5005C143.595 50.3983 143.787 52.3017 143.954 54.2176C143.967 54.3694 143.981 54.5213 143.994 54.6777C144.317 58.3965 144.494 62.1222 144.666 65.8506C144.718 66.9766 144.776 68.1021 144.841 69.2275C144.917 70.5564 144.984 71.8853 145.04 73.2153C145.054 73.561 145.071 73.9066 145.087 74.2522C145.298 78.9568 145.298 78.9568 143.808 81.0504C143.682 81.2741 143.682 81.2741 143.553 81.5024C143.483 81.6109 143.413 81.7194 143.341 81.8312C143.238 81.8312 143.135 81.8312 143.029 81.8312C142.689 80.4621 142.624 79.0852 142.552 77.6828C142.534 77.3402 142.516 76.9975 142.497 76.6549C142.48 76.3445 142.464 76.034 142.448 75.7236C142.419 75.2988 142.381 74.8842 142.331 74.4623C142.225 73.5476 142.187 72.6304 142.144 71.711C142.135 71.5188 142.125 71.3267 142.116 71.1287C142.076 70.3143 142.037 69.4998 141.998 68.6853C141.885 66.3215 141.752 63.9615 141.577 61.6014C141.484 60.3406 141.417 59.0833 141.384 57.8194C141.375 57.4786 141.365 57.1378 141.355 56.797C141.351 56.6547 141.347 56.5124 141.343 56.3658C141.316 55.9071 141.258 55.4569 141.199 55.0015C141.128 54.361 141.108 53.7181 141.083 53.0744C141.073 52.8508 141.073 52.8508 141.063 52.6228C141.043 52.149 141.024 51.6753 141.005 51.2015C140.887 48.3199 140.887 48.3199 140.693 45.4426C140.59 45.4426 140.488 45.4426 140.382 45.4426C140.33 45.5972 140.279 45.7518 140.226 45.9111C139.759 45.5988 139.759 45.5988 139.648 45.2328C139.466 44.0214 139.386 42.8307 139.36 41.6066C139.354 41.3854 139.348 41.1643 139.342 40.9432C139.305 39.5035 139.283 38.0636 139.264 36.6236C139.203 32.1524 139.097 27.6854 138.936 23.2167C138.922 22.8132 138.908 22.4097 138.895 22.0062C138.758 17.9773 138.539 13.9713 137.792 10.0009C137.732 9.67538 137.674 9.34934 137.617 9.02316C137.579 8.81072 137.54 8.59832 137.5 8.38595C137.467 8.20196 137.433 8.01797 137.398 7.8284C137.265 7.32881 137.105 6.97095 136.8 6.55517C136.697 6.55517 136.594 6.55517 136.488 6.55517C135.704 8.48629 135.528 10.4644 135.533 12.5349C135.533 12.6856 135.533 12.8362 135.532 12.9914C135.532 13.4815 135.533 13.9715 135.534 14.4615C135.534 14.6307 135.534 14.7999 135.535 14.9742C135.537 17.2544 135.566 19.5322 135.632 21.8115C135.687 23.7816 135.734 25.7513 135.746 27.7223C135.747 27.982 135.75 28.2418 135.754 28.5015C135.758 28.86 135.76 29.2184 135.76 29.5769C135.762 29.78 135.763 29.9832 135.765 30.1924C135.701 30.849 135.52 31.262 135.242 31.8554C135.207 32.2243 135.207 32.2243 135.271 32.5582C135.286 32.6661 135.301 32.774 135.317 32.8852C135.395 33.2804 135.395 33.2804 135.556 33.7264C135.773 34.4874 135.754 35.2432 135.751 36.0294C135.751 36.1895 135.751 36.3495 135.752 36.5144C135.752 36.8522 135.751 37.1901 135.75 37.528C135.748 38.0389 135.75 38.5498 135.752 39.0608C135.752 39.3908 135.751 39.7209 135.751 40.0509C135.751 40.201 135.752 40.3511 135.753 40.5057C135.747 41.3014 135.687 42.0554 135.554 42.8405C135.375 43.9251 135.349 44.9861 135.344 46.0838C135.341 46.3906 135.337 46.6975 135.334 47.0044C135.327 47.6431 135.322 48.2819 135.318 48.9206C135.314 49.4526 135.309 49.9846 135.303 50.5166C135.298 50.9133 135.295 51.3101 135.293 51.707C135.29 51.9738 135.29 51.9738 135.287 52.2461C135.286 52.4029 135.285 52.5598 135.283 52.7214C135.242 53.0951 135.242 53.0951 134.931 53.4075C134.568 53.5158 134.205 53.6201 133.84 53.7198C133.639 53.8864 133.639 53.8864 133.675 54.2762C133.678 54.4018 133.681 54.5275 133.685 54.6569C134.379 54.8888 134.379 54.8888 135.086 55.1254C135.323 57.9108 135.454 60.6877 135.519 63.482C135.614 67.5618 135.78 71.6365 136 75.7113C136.021 76.0905 136.041 76.4697 136.06 76.8489C136.092 77.446 136.124 78.043 136.158 78.64C136.17 78.8593 136.182 79.0787 136.194 79.2981C136.27 80.8263 136.27 80.8263 136.644 82.2997C136.747 82.2997 136.849 82.2997 136.955 82.2997C136.991 80.2696 136.962 78.2578 136.809 76.2327C136.637 73.8011 136.55 71.3693 136.487 68.9327C136.478 68.5784 136.469 68.224 136.459 67.8697C136.307 62.1874 136.235 56.5041 136.186 50.8201C136.178 49.9229 136.168 49.0256 136.157 48.1284C136.15 47.5163 136.145 46.9043 136.141 46.2923C136.139 46.0303 136.136 45.7684 136.132 45.5065C136.128 45.1627 136.126 44.8189 136.126 44.475C136.124 44.293 136.123 44.111 136.121 43.9235C136.188 43.3039 136.375 42.8787 136.644 42.3191C136.747 42.3191 136.849 42.3191 136.955 42.3191C137.229 43.6594 137.376 44.9991 137.496 46.3607C137.516 46.5826 137.536 46.8045 137.557 47.0264C137.599 47.4896 137.64 47.9528 137.681 48.416C137.733 49.0012 137.786 49.5862 137.839 50.1711C138.234 54.5158 138.234 54.5158 138.325 56.6099C138.359 57.1873 138.426 57.754 138.503 58.327C138.689 59.7273 138.789 61.1314 138.892 62.54C138.98 63.7258 139.077 64.9106 139.174 66.0956C140.077 77.1022 140.077 77.1022 140.09 82.0948C140.09 82.2105 140.091 82.3263 140.091 82.4455C140.092 82.775 140.092 83.1044 140.091 83.4338C140.091 83.6254 140.091 83.817 140.09 84.0144C140.07 84.4862 140.07 84.4862 139.914 84.9547C139.209 84.8761 138.865 84.6198 138.338 84.1543C136.865 82.8669 136.865 82.8669 135.086 82.1436C135.073 82.2364 135.06 82.3292 135.046 82.4248C134.919 83.1751 134.744 83.8135 134.405 84.4959C133.855 85.6319 133.63 86.8497 133.373 88.0782C133.219 88.0782 133.065 88.0782 132.906 88.0782C132.513 87.092 132.234 86.1025 131.981 85.0718C131.921 84.8268 131.921 84.8268 131.859 84.5767C131.513 83.1582 131.221 81.7321 130.949 80.2978C130.882 79.9602 130.806 79.6256 130.728 79.2903C130.526 78.3876 130.393 77.4753 130.258 76.5603C130.233 76.393 130.207 76.2257 130.18 76.0534C129.732 73.0311 129.582 70.0373 129.576 66.9842C129.57 65.2913 129.495 63.7079 129.107 62.0577C128.375 58.8931 128.265 55.5686 127.99 52.3369C127.891 51.1656 127.788 49.9946 127.686 48.8235C127.675 48.709 127.665 48.5944 127.655 48.4763C127.341 44.9035 127.027 41.3308 126.454 37.7888C126.207 36.2572 126.001 34.7211 125.8 33.1829C125.784 33.0596 125.768 32.9363 125.751 32.8093C125.641 31.9712 125.534 31.1326 125.43 30.2937C125.416 30.1785 125.401 30.0633 125.386 29.9447C125.013 26.9352 124.937 23.938 124.943 20.9073C124.944 20.3934 124.943 19.8796 124.942 19.3657C124.94 14.8132 124.94 14.8132 125.372 13.0364C125.399 12.9261 125.425 12.8157 125.453 12.7021C125.945 10.8159 126.861 9.33739 128.234 7.96074C128.318 7.86351 128.402 7.76627 128.489 7.66609C129.047 7.03852 129.692 6.6135 130.414 6.19402C130.505 6.14125 130.595 6.08848 130.689 6.03411C131.641 5.50381 132.509 5.26175 133.597 5.28626C133.761 5.28908 133.924 5.29189 134.093 5.2948C134.215 5.29842 134.337 5.30205 134.463 5.30578C134.357 5.41208 134.251 5.51837 134.142 5.62789C134.071 5.70077 133.999 5.77364 133.926 5.84873C133.767 6.00584 133.603 6.15819 133.434 6.30505C130.111 9.31675 129.77 14.6106 129.541 18.7526C129.533 18.9191 129.525 19.0855 129.516 19.2569C129.48 19.6738 129.48 19.6738 129.324 20.1423C129.018 20.3586 128.705 20.5659 128.389 20.767C127.949 21.0707 127.949 21.0707 127.611 21.3917C127.611 21.5464 127.611 21.701 127.611 21.8603C128.073 21.9118 128.536 21.9633 129.012 22.0164C129.372 22.888 129.391 23.7229 129.421 24.6519C129.427 24.8041 129.433 24.9563 129.439 25.1131C129.454 25.4864 129.467 25.8597 129.48 26.2331C129.347 26.3087 129.347 26.3087 129.213 26.3858C129.098 26.4536 128.984 26.5214 128.866 26.5913C128.753 26.6577 128.639 26.7242 128.521 26.7927C128.18 27.0108 128.18 27.0108 128.078 27.5313C128.078 27.6699 128.078 27.8084 128.078 27.9511C128.529 28.177 128.982 28.1667 129.48 28.2042C129.583 28.2238 129.685 28.2433 129.791 28.2634C130.639 29.9648 130.295 32.9278 130.317 34.7935C130.323 35.0642 130.323 35.0642 130.329 35.3403C130.329 35.5087 130.33 35.6772 130.33 35.8507C130.331 35.9992 130.333 36.1478 130.334 36.3008C130.236 36.8131 130.038 37.0018 129.635 37.3215C129.533 37.3215 129.43 37.3215 129.324 37.3215C129.272 37.6823 129.221 38.0431 129.168 38.4147C129.268 38.4242 129.367 38.4337 129.469 38.4434C129.598 38.4565 129.727 38.4696 129.859 38.4831C130.052 38.5021 130.052 38.5021 130.248 38.5215C130.57 38.5709 130.57 38.5709 130.726 38.7271C130.761 38.9424 130.787 39.1592 130.809 39.3762C130.829 39.5773 130.829 39.5773 130.85 39.7825C130.864 39.9238 130.877 40.0651 130.891 40.2108C130.905 40.3472 130.919 40.4837 130.934 40.6244C131.021 41.5062 131.051 42.3702 131.037 43.2562C130.728 43.4036 130.419 43.551 130.109 43.6984C129.779 43.8876 129.562 44.0529 129.324 44.3494C129.272 44.5555 129.221 44.7617 129.168 44.9741C129.785 45.0771 130.402 45.1802 131.037 45.2864C131.223 46.3594 131.251 47.436 131.294 48.5228C131.303 48.7364 131.312 48.95 131.321 49.1636C131.34 49.6173 131.359 50.071 131.378 50.5247C131.522 54.0154 131.68 57.505 131.903 60.9917C131.912 61.1384 131.921 61.2851 131.931 61.4363C132.018 62.8438 132.109 64.2135 132.439 65.5891C132.593 65.6406 132.747 65.6922 132.906 65.7453C132.896 65.6589 132.885 65.5725 132.875 65.4835C132.78 64.6689 132.713 63.858 132.672 63.0391C132.666 62.9182 132.66 62.7974 132.653 62.6728C132.633 62.2784 132.614 61.884 132.595 61.4895C132.584 61.2835 132.584 61.2835 132.574 61.0734C132.472 59.0081 132.401 56.9436 132.353 54.8765C132.308 52.973 132.231 51.0728 132.137 49.1713C131.964 45.6509 131.847 42.129 131.732 38.6063C131.727 38.4248 131.721 38.2433 131.714 38.0563C131.69 37.2993 131.665 36.5423 131.641 35.7853C131.622 35.1838 131.602 34.5823 131.583 33.9809C131.577 33.8009 131.572 33.621 131.566 33.4356C131.513 31.8303 131.398 30.2315 131.271 28.6307C131.072 25.8966 131.008 23.1612 131.008 20.4206C131.008 19.9143 131.005 19.4081 131.002 18.9018C130.997 17.099 131.072 15.3651 131.349 13.583C131.391 13.2414 131.433 12.8998 131.475 12.5581C131.922 9.77034 133.163 7.07013 135.486 5.37411C136.28 4.88125 136.855 4.85857 137.744 5.14961Z" fill="#F9F9F9"/>
<path d="M165.036 27.8626C165.962 28.7171 166.332 29.8551 166.673 31.0355C166.722 31.1998 166.722 31.1998 166.771 31.3675C167.613 34.5301 167.474 38.6453 166.858 41.8506C166.831 41.9959 166.803 42.1413 166.775 42.291C165.924 46.6961 164.791 51.3109 160.867 53.9815C158.581 55.4073 158.581 55.4073 157.358 55.2816C157.913 54.6922 158.499 54.2249 159.168 53.7686C162.723 51.2712 164.54 47.8246 165.418 43.6173C165.484 43.2368 165.549 42.8561 165.612 42.4753C165.64 42.3127 165.668 42.1502 165.697 41.9827C165.957 40.286 165.982 38.6043 165.981 36.8904C165.982 36.3956 165.988 35.901 165.994 35.4062C166.007 32.9948 165.916 30.5605 164.366 28.5758C163.852 28.0604 163.511 27.9179 162.809 27.7949C162.828 27.9463 162.847 28.0977 162.866 28.2536C163.022 29.503 163.022 29.503 163.066 29.8674C163.106 30.1826 163.151 30.4973 163.199 30.8115C163.445 32.5246 163.485 34.2161 163.481 35.9455C163.481 36.4207 163.484 36.8957 163.488 37.3709C163.503 41.9859 162.765 46.8625 159.383 50.284C158.201 51.4004 156.52 52.6539 154.83 52.6419C154.705 52.6414 154.58 52.6409 154.451 52.6403C154.322 52.639 154.192 52.6377 154.058 52.6364C153.861 52.6353 153.861 52.6353 153.659 52.6342C153.335 52.6324 153.01 52.6296 152.686 52.6266C152.686 52.472 152.686 52.3174 152.686 52.1581C153.033 51.8711 153.377 51.6137 153.747 51.3577C153.963 51.2033 154.178 51.0485 154.394 50.8934C154.501 50.8167 154.608 50.74 154.718 50.6609C157.67 48.5145 160.001 45.9269 160.638 42.2353C160.848 40.8207 160.826 39.4105 160.82 37.984C160.82 37.6904 160.82 37.3968 160.82 37.1032C160.82 36.4924 160.818 35.8815 160.816 35.2707C160.814 34.4873 160.813 33.704 160.813 32.9206C160.813 32.3164 160.812 31.7122 160.811 31.1079C160.811 30.8189 160.81 30.5299 160.81 30.2408C160.81 29.8387 160.808 29.4366 160.807 29.0344C160.807 28.8556 160.807 28.8556 160.807 28.6731C160.804 28.1821 160.784 27.7957 160.628 27.3264C159.412 28.436 159.317 29.95 159.241 31.5145C159.191 32.7305 159.171 33.9476 159.149 35.1644C159.117 36.8392 159.083 38.5135 159.005 40.187C159 40.3045 158.996 40.4221 158.991 40.5433C158.929 41.751 158.642 42.8835 158.292 44.037C158.263 44.1393 158.233 44.2417 158.202 44.3471C157.432 46.9772 156.157 49.0082 153.776 50.4402C152.09 51.221 152.09 51.221 151.284 51.221C151.284 50.9118 151.284 50.6026 151.284 50.284C151.078 50.1809 150.873 50.0778 150.661 49.9716C150.866 49.5106 151.083 49.2042 151.452 48.8626C151.546 48.773 151.64 48.6834 151.737 48.5911C151.932 48.4078 152.128 48.2256 152.324 48.0445C153.373 47.0366 153.953 46.048 154.017 44.5751C154.027 44.0318 154.028 43.4891 154.024 42.9457C154.02 42.4976 154.02 42.0497 154.022 41.6016C154.026 40.6499 154.023 39.6983 154.019 38.7466C154.016 37.6438 154.015 36.541 154.019 35.4382C154.02 34.9998 154.016 34.5615 154.013 34.1231C154.009 32.0608 154.244 30.1982 155.645 28.5758C158.075 26.2584 162.245 25.8931 165.036 27.8626Z" fill="#F9F9F9"/>
<path d="M117.322 45.5988C118.914 46.6161 119.59 48.5289 119.989 50.2938C120.288 51.6831 120.495 53.0891 120.697 54.4953C120.828 55.4006 120.983 56.2736 121.225 57.1557C121.276 57.3397 121.326 57.5237 121.378 57.7133C122.195 60.6692 122.195 60.6692 124.132 62.944C124.952 63.3675 125.743 63.5717 126.647 63.7346C126.908 63.7828 127.168 63.832 127.429 63.8822C127.542 63.9027 127.656 63.9233 127.773 63.9445C128.078 64.0274 128.078 64.0274 128.545 64.3397C128.389 64.8083 128.389 64.8083 128.078 64.9644C127.479 65.0151 126.878 65.0151 126.277 65.023C126.112 65.0288 125.947 65.0347 125.777 65.0407C124.334 65.0567 123.425 64.6485 122.364 63.6857C119.642 60.7301 119.187 55.6991 118.55 51.9117C118.284 50.3804 117.975 48.7675 117.108 47.4534C116.978 47.2498 116.978 47.2498 116.845 47.0422C116.525 46.6586 116.214 46.4548 115.774 46.2235C114.687 52.1287 115.968 60.4003 119.2 65.4329C119.576 65.8856 119.95 66.2151 120.446 66.5262C120.54 66.5872 120.634 66.6482 120.73 66.711C122.301 67.6107 124.288 67.7236 126.053 67.9317C126.053 68.0348 126.053 68.1379 126.053 68.2441C124.938 68.7652 123.933 68.7883 122.714 68.7809C122.531 68.7841 122.348 68.7872 122.159 68.7904C121.028 68.7898 120.183 68.6572 119.2 68.0879C119.067 68.0128 118.933 67.9377 118.795 67.8604C116.447 66.2829 115.219 63.9561 114.217 61.3724C114.111 61.1043 114.111 61.1043 114.004 60.8307C113.127 58.4061 112.546 55.6758 112.503 53.0952C112.5 52.9577 112.496 52.8202 112.492 52.6785C112.403 49.2393 112.403 49.2393 112.868 47.8121C113.001 47.4323 113.001 47.4323 112.971 46.8482C112.897 46.9672 112.897 46.9672 112.822 47.0886C112.683 47.3125 112.543 47.5355 112.402 47.7578C112.226 48.0429 112.066 48.3378 111.91 48.6344C111.419 49.2113 111.064 49.1319 110.323 49.1908C109.911 49.4838 109.863 49.637 109.7 50.1279C110.163 50.2825 110.625 50.4371 111.102 50.5964C111.155 51.529 111.2 52.4615 111.237 53.3949C111.251 53.7153 111.267 54.0357 111.285 54.356C111.311 54.8207 111.329 55.285 111.345 55.7501C111.355 55.8945 111.365 56.0389 111.375 56.1876C111.385 56.599 111.382 56.9193 111.258 57.3119C110.947 57.5836 110.657 57.7485 110.281 57.9158C110.192 57.9742 110.103 58.0326 110.012 58.0928C110.012 58.2989 110.012 58.5051 110.012 58.7174C110.705 58.8721 110.705 58.8721 111.413 59.0298C111.574 59.5335 111.733 60.0378 111.89 60.5427C111.936 60.6852 111.982 60.8276 112.029 60.9744C112.072 61.1128 112.115 61.2512 112.159 61.3938C112.198 61.5205 112.238 61.6473 112.28 61.7779C112.358 62.2077 112.302 62.5146 112.192 62.9342C111.729 63.0115 111.729 63.0115 111.258 63.0903C111.46 63.886 111.77 64.2422 112.348 64.8083C112.89 65.7084 113.362 66.646 113.836 67.5837C114.386 68.6452 114.989 69.4288 115.979 70.1279C116.127 70.233 116.275 70.3381 116.427 70.4464C116.812 70.7072 117.199 70.9577 117.594 71.2016C117.765 71.3079 117.935 71.4142 118.11 71.5238C118.11 71.5753 118.11 71.6268 118.11 71.6799C116.369 71.8142 114.847 71.093 113.438 70.1182C113.344 70.055 113.25 69.9918 113.154 69.9266C109.674 67.2746 108.616 61.9304 108.043 57.8886C107.863 56.5347 107.793 55.1983 107.785 53.8315C107.783 53.6213 107.78 53.411 107.776 53.2007C107.726 50.9086 108.147 48.9593 109.735 47.2582C111.622 45.4345 114.802 44.4406 117.322 45.5988Z" fill="#F7F7F7"/>
<path d="M138.513 5.14959C140.093 4.99178 141.391 5.50168 142.679 6.40875C145.518 8.80881 146.343 13.2747 146.65 16.7846C146.684 17.2088 146.714 17.633 146.742 18.0575C146.763 18.3645 146.788 18.6712 146.814 18.9777C147.12 22.6695 147.106 26.3842 147.11 30.086C147.11 30.4781 147.111 30.8703 147.112 31.2624C147.114 32.4946 147.115 33.7268 147.116 34.959C147.117 36.3731 147.119 37.7871 147.124 39.2012C147.127 40.3028 147.129 41.4044 147.129 42.506C147.129 43.1609 147.13 43.8157 147.133 44.4706C147.135 45.0832 147.136 45.6956 147.134 46.3082C147.134 46.5325 147.135 46.7568 147.136 46.9811C147.138 47.2874 147.137 47.5936 147.136 47.8998C147.136 48.071 147.136 48.2421 147.137 48.4185C147.071 48.9416 146.928 49.2413 146.611 49.6593C146.509 49.6593 146.406 49.6593 146.3 49.6593C146.072 48.8335 145.947 48.1043 145.934 47.242C145.932 47.1315 145.93 47.0209 145.928 46.907C145.922 46.5401 145.917 46.1732 145.913 45.8063C145.908 45.5417 145.904 45.277 145.9 45.0124C145.89 44.4439 145.882 43.8755 145.874 43.307C145.861 42.4053 145.847 41.5037 145.832 40.6021C145.809 39.1731 145.788 37.7441 145.767 36.3152C145.729 33.7636 145.689 31.2121 145.649 28.6606C145.635 27.7673 145.621 26.874 145.608 25.9806C145.6 25.4205 145.592 24.8603 145.583 24.3002C145.579 24.0438 145.575 23.7874 145.572 23.531C145.553 22.1849 145.518 20.8411 145.45 19.4965C145.441 19.3161 145.441 19.3161 145.432 19.132C145.37 17.9804 145.204 16.8568 145.005 15.7206C144.974 15.5289 144.943 15.3371 144.911 15.1396C144.609 13.3606 144.226 11.5731 143.389 9.96171C143.336 9.85785 143.283 9.75398 143.228 9.64696C142.142 7.60603 140.674 6.28049 138.513 5.46194C138.513 5.35886 138.513 5.25579 138.513 5.14959Z" fill="#EEEEEE"/>
<path d="M152.841 78.7078C152.544 79.7106 152.155 80.6077 151.644 81.5189C151.576 81.6413 151.508 81.7637 151.438 81.8899C150.972 82.7088 150.464 83.4131 149.788 84.0756C149.52 84.3334 149.52 84.3334 149.571 84.7986C150.033 84.8759 150.033 84.8759 150.505 84.9547C150.264 85.6142 149.772 85.9517 149.24 86.3701C148.293 87.1412 147.544 87.9491 146.923 89.0153C146.923 89.1183 146.923 89.2214 146.923 89.3276C147.334 89.4307 147.745 89.5338 148.169 89.64C147.673 90.2094 147.028 90.4674 146.362 90.796C145.918 91.0323 145.918 91.0323 145.833 91.6702C146.347 91.7733 146.861 91.8764 147.39 91.9826C147.079 92.6073 147.079 92.6073 146.746 92.7555C146.615 92.7936 146.484 92.8316 146.349 92.8708C145.523 93.1698 145.15 93.5909 144.66 94.3063C144.431 94.6375 144.431 94.6375 143.964 95.1061C143.912 94.5392 143.861 93.9722 143.808 93.3882C143.5 93.5943 143.191 93.8005 142.874 94.0129C143.038 92.5828 143.643 91.3774 144.275 90.1085C144.368 89.9196 144.461 89.7307 144.555 89.5417C144.771 89.105 144.989 88.6692 145.21 88.2344C144.628 88.7999 144.101 89.3947 143.582 90.0188C143.503 90.0999 143.423 90.1811 143.341 90.2647C143.238 90.2647 143.135 90.2647 143.029 90.2647C142.833 87.9388 144.183 85.9906 145.57 84.2422C147.006 82.5401 150.437 78.7078 152.841 78.7078Z" fill="#F8F8F8"/>
<path d="M128.389 87.2973C128.641 87.4074 128.893 87.5174 129.145 87.6274C133.665 89.6144 133.665 89.6144 134.488 91.4481C134.601 91.7809 134.697 92.1087 134.775 92.4511C134.316 92.2387 133.949 91.9898 133.558 91.6702C132.986 91.2293 132.518 91.0361 131.816 90.8893C131.893 91.1986 131.893 91.1986 131.971 91.514C130.721 91.4304 129.517 91.1425 128.389 90.577C128.931 91.6796 129.488 92.7645 130.102 93.8286C130.154 93.9409 130.205 94.0532 130.258 94.169C130.181 94.3236 130.181 94.3236 130.103 94.4813C128.828 93.5336 127.965 92.1436 127.219 90.7576C126.664 89.9488 125.927 89.6492 125.021 89.3666C124.845 89.3095 124.845 89.3095 124.665 89.2512C123.311 88.8179 121.946 88.4189 120.581 88.0201C120.407 87.969 120.232 87.9179 120.052 87.8653C119.895 87.8197 119.739 87.7742 119.577 87.7272C119.2 87.6097 119.2 87.6097 118.889 87.4535C119.045 86.985 119.045 86.985 119.309 86.8458C119.69 86.7224 120.072 86.6009 120.456 86.4872C120.597 86.4456 120.737 86.404 120.882 86.3612C123.569 85.618 125.89 86.1769 128.389 87.2973Z" fill="#F8F8F8"/>
<path d="M148.013 50.1279C148.167 50.1794 148.322 50.2309 148.48 50.284C150.135 57.7924 149.431 66.5123 149.454 74.1787C149.455 74.3193 149.455 74.4598 149.456 74.6046C149.464 76.2616 149.371 77.8517 149.103 79.4887C148.898 79.4887 148.692 79.4887 148.48 79.4887C148.337 78.9915 148.296 78.5296 148.277 78.013C148.271 77.8399 148.264 77.6669 148.258 77.4886C148.251 77.2994 148.245 77.1101 148.238 76.9152C148.231 76.7152 148.223 76.5152 148.216 76.3092C148.195 75.7597 148.176 75.2103 148.157 74.6608C148.136 74.0814 148.115 73.502 148.094 72.9226C148.054 71.8202 148.015 70.7177 147.975 69.6152C147.931 68.3789 147.887 67.1426 147.842 65.9064C147.749 63.3488 147.658 60.7913 147.568 58.2337C147.549 57.7174 147.531 57.2011 147.512 56.6849C147.493 56.1799 147.475 55.6749 147.457 55.1699C147.45 54.9904 147.443 54.8109 147.436 54.626C147.418 54.1157 147.404 53.6055 147.39 53.0952C147.383 52.9128 147.377 52.7303 147.37 52.5424C147.365 52.3631 147.361 52.1839 147.357 51.9992C147.352 51.8385 147.347 51.6779 147.342 51.5124C147.403 50.9463 147.609 50.5328 148.013 50.1279Z" fill="#EEEEEE"/>
<path d="M162.809 83.393C162.809 83.496 162.809 83.5991 162.809 83.7053C162.492 83.9484 162.175 84.1745 161.845 84.3983C160.245 85.5175 158.803 86.7616 157.416 88.1368C157.324 88.2278 157.232 88.3189 157.137 88.4127C157.05 88.5 156.964 88.5873 156.875 88.6773C156.799 88.7539 156.723 88.8304 156.644 88.9093C156.355 89.2382 156.355 89.2382 155.956 89.9523C157.652 90.0296 157.652 90.0296 159.383 90.1085C159.331 90.2631 159.28 90.4177 159.227 90.577C158.294 91.0371 157.292 91.2252 156.268 91.3383C154.587 91.5536 153.346 92.347 152.072 93.4296C151.751 93.7005 151.751 93.7005 151.284 94.0128C151.334 93.154 151.863 92.6468 152.393 92.0216C152.578 91.7996 152.762 91.5776 152.947 91.3554C153.036 91.2488 153.125 91.1422 153.216 91.0324C153.677 90.4757 154.115 89.9015 154.554 89.3276C153.835 89.7399 153.115 90.1522 152.374 90.577C152.218 90.1085 152.218 90.1085 152.426 89.6107C152.53 89.4109 152.636 89.2125 152.744 89.0152C152.801 88.9107 152.858 88.8062 152.917 88.6986C154.225 86.3662 156.187 84.5521 158.752 83.7108C160.11 83.3473 161.416 83.3446 162.809 83.393Z" fill="#F6F6F6"/>
<path d="M135.554 83.7053C135.656 83.7053 135.759 83.7053 135.865 83.7053C135.9 83.7934 135.934 83.8815 135.97 83.9722C136.129 84.378 136.289 84.7835 136.449 85.189C136.53 85.3967 136.53 85.3967 136.613 85.6087C137.098 87.0158 137.098 87.0158 137.89 88.2344C138.152 88.2707 138.415 88.2988 138.678 88.3222C138.821 88.3353 138.965 88.3484 139.112 88.3619C139.278 88.3761 139.278 88.3761 139.447 88.3906C139.205 88.9133 138.919 89.233 138.513 89.6399C138.513 89.743 138.513 89.8461 138.513 89.9523C138.659 89.9807 138.659 89.9807 138.808 90.0096C138.936 90.0358 139.063 90.062 139.194 90.0889C139.384 90.127 139.384 90.127 139.577 90.1658C139.914 90.2646 139.914 90.2646 140.226 90.577C140.159 90.641 140.091 90.705 140.022 90.771C139.935 90.8551 139.848 90.9393 139.759 91.026C139.672 91.1093 139.585 91.1927 139.496 91.2786C139.257 91.5013 139.257 91.5013 139.292 91.8264C139.548 91.9295 139.805 92.0325 140.07 92.1387C140.019 92.3449 139.967 92.551 139.914 92.7634C139.298 92.8665 138.681 92.9696 138.046 93.0758C138.097 93.2143 138.148 93.3528 138.201 93.4955C138.343 93.9674 138.386 94.307 138.357 94.7937C137.475 94.5855 137.125 93.9439 136.644 93.232C135.207 90.879 134.113 88.4434 134.749 85.6307C134.957 84.9276 135.147 84.3176 135.554 83.7053Z" fill="#F7F7F7"/>
<path d="M167.793 69.962C167.45 70.5862 167.046 71.0673 166.556 71.5823C165.975 72.2109 165.52 72.7856 165.145 73.554C165.351 73.6571 165.556 73.7601 165.768 73.8663C165.652 73.9587 165.535 74.0512 165.415 74.1464C165.262 74.2698 165.108 74.3932 164.95 74.5203C164.799 74.6417 164.647 74.7631 164.49 74.8882C162.387 76.7416 161.751 79.8904 160.94 82.4559C160.554 82.5332 160.554 82.5332 160.161 82.6121C160.128 81.582 160.228 80.683 160.473 79.6838C160.507 79.5433 160.541 79.4028 160.576 79.2581C161.404 75.9997 162.603 72.4878 165.593 70.655C166.36 70.2031 166.897 69.9377 167.793 69.962Z" fill="#F2F2F2"/>
<path d="M126.209 95.2622C127.634 95.1685 128.956 95.4197 130.344 95.7036C130.714 95.7792 131.085 95.8526 131.455 95.9256C132.779 96.1889 134.093 96.4776 135.398 96.824C135.398 96.9786 135.398 97.1332 135.398 97.2925C135.096 97.5554 135.096 97.5554 134.687 97.8293C134.555 97.9193 134.424 98.0093 134.288 98.102C134.14 98.1956 133.992 98.2893 133.84 98.3857C133.672 98.4988 133.503 98.612 133.329 98.7286C132.684 99.0919 132.094 99.1005 131.368 99.0787C131.182 99.0744 131.182 99.0744 130.992 99.0701C128.991 98.9984 128.991 98.9984 128.184 98.1722C127.818 97.7347 127.478 97.2858 127.143 96.824C126.997 96.6361 126.997 96.6361 126.848 96.4445C126.209 95.6235 126.209 95.6235 126.209 95.2622Z" fill="#F7F7F7"/>
<path d="M142.563 97.5536C142.675 97.5544 142.787 97.5552 142.903 97.556C143.021 97.5562 143.138 97.5564 143.26 97.5566C145.316 97.5885 147.372 97.853 149.415 98.0734C149.307 98.6117 149.144 98.8759 148.727 99.2441C148.465 99.4793 148.465 99.4793 148.243 99.8065C147.789 100.351 147.395 100.676 146.679 100.794C146.204 100.832 145.735 100.845 145.258 100.845C145.101 100.846 144.944 100.846 144.782 100.847C143.657 100.814 143.031 100.588 142.232 99.7626C142.142 99.6464 142.052 99.5303 141.959 99.4106C141.866 99.2948 141.773 99.1791 141.678 99.0598C141.437 98.6365 141.406 98.397 141.472 97.9172C141.848 97.5401 142.049 97.5608 142.563 97.5536Z" fill="#F8F8F8"/>
<path d="M177.137 71.6799C176.888 72.3329 176.407 72.7369 175.901 73.1928C175.812 73.2744 175.722 73.356 175.63 73.44C173.257 75.5842 173.257 75.5842 172.621 75.5842C172.672 75.3266 172.724 75.0689 172.777 74.8034C172.062 75.1289 171.486 75.5291 170.898 76.043C170.768 76.1543 170.768 76.1543 170.636 76.2678C169.904 76.9023 169.192 77.5594 168.492 78.2297C167.162 79.4886 167.162 79.4886 166.547 79.4886C166.801 78.2311 167.772 77.2743 168.61 76.3554C168.693 76.2641 168.776 76.1728 168.861 76.0787C169.069 75.8552 169.287 75.6408 169.506 75.4281C169.609 75.4281 169.711 75.4281 169.817 75.4281C169.817 75.325 169.817 75.2219 169.817 75.1157C170.201 74.7179 170.64 74.3768 171.063 74.0225C171.202 73.9029 171.341 73.7833 171.484 73.6601C173.295 72.1253 174.765 71.5998 177.137 71.6799Z" fill="#F3F3F3"/>
<path d="M133.062 66.2138C133.594 66.4346 133.869 66.6447 134.152 67.1509C134.179 67.5911 134.18 68.0006 134.162 68.4393C134.104 71.4245 134.334 74.4377 134.697 77.3998C134.715 77.5513 134.734 77.7029 134.753 77.859C134.85 78.5942 134.985 79.2578 135.242 79.9572C135.303 80.4711 135.292 80.6613 135.009 81.0992C134.931 81.1862 134.854 81.2731 134.775 81.3627C133.996 81.2884 133.532 81.0454 132.906 80.5819C132.925 80.3085 132.925 80.3085 133.062 79.9572C133.368 79.7417 133.68 79.5329 133.996 79.3325C133.978 79.1491 133.959 78.9658 133.94 78.7768C133.731 76.7117 133.54 74.6452 133.354 72.5779C133.325 72.2611 133.297 71.9443 133.268 71.6274C133.199 70.8641 133.13 70.1007 133.062 69.3373C132.964 69.2958 132.867 69.2544 132.766 69.2116C132.639 69.1565 132.512 69.1013 132.381 69.0445C132.255 68.9901 132.128 68.9358 131.998 68.8798C131.591 68.6786 131.386 68.5016 131.193 68.0879C131.193 67.8817 131.193 67.6756 131.193 67.4632C131.439 67.4584 131.439 67.4584 131.689 67.4534C132.412 67.2752 132.551 67.0544 132.93 66.4475C132.973 66.3704 133.017 66.2932 133.062 66.2138Z" fill="#2F7443"/>
<path d="M163.743 63.8712C163.677 64.9472 163.522 65.9858 163.312 67.0427C163.103 68.119 162.964 69.203 162.837 70.2916C162.718 71.2382 162.576 72.2082 162.186 73.0855C162.032 73.1886 161.878 73.2917 161.719 73.3979C161.456 73.1346 161.521 72.7961 161.494 72.4425C161.403 71.3703 161.229 70.5897 160.677 69.6594C159.983 68.4644 159.983 68.4644 160.157 67.678C160.708 66.4008 162.243 63.8712 163.743 63.8712Z" fill="#F8F8F8"/>
<path d="M168.017 80.6794C168.169 80.6792 168.322 80.679 168.48 80.6788C169.696 80.6965 170.714 80.8848 171.842 81.3627C171.842 81.5173 171.842 81.6719 171.842 81.8312C171.328 81.9343 170.814 82.0374 170.285 82.1436C170.439 82.2982 170.593 82.4528 170.752 82.6121C169.04 83.3791 167.481 83.608 165.612 83.5491C165.8 83.1597 165.995 82.818 166.235 82.4559C166.129 82.4817 166.023 82.5075 165.914 82.534C165.392 82.6232 164.895 82.6225 164.366 82.6121C164.577 82.1295 164.801 81.8361 165.203 81.4994C165.295 81.4217 165.386 81.3439 165.48 81.2639C166.302 80.6553 167.024 80.6781 168.017 80.6794Z" fill="#F7F7F7"/>
<path d="M126.209 80.738C126.927 80.9629 127.392 81.3767 127.922 81.8898C128.081 82.0409 128.24 82.1918 128.399 82.3425C128.514 82.4512 128.514 82.4512 128.63 82.562C128.843 82.7562 129.069 82.9361 129.295 83.1148C129.635 83.393 129.635 83.393 129.781 83.7249C129.785 83.8215 129.788 83.9181 129.791 84.0177C129.48 84.3301 129.48 84.3301 129.071 84.3496C128.949 84.3431 128.827 84.3367 128.701 84.3301C128.91 85.0756 129.364 85.5428 129.875 86.0992C130.103 86.3603 130.103 86.3603 130.103 86.5165C129.087 86.6014 128.282 86.5284 127.455 85.8918C126.881 85.0674 126.669 84.1107 126.482 83.1392C126.455 83.0112 126.428 82.8831 126.4 82.7512C126.262 82.0697 126.177 81.4372 126.209 80.738Z" fill="#F3F3F3"/>
<path d="M139.759 102.134C139.862 102.237 139.964 102.34 140.07 102.446C138.615 103.002 137.183 102.977 135.652 102.959C135.233 102.954 134.814 102.952 134.395 102.951C133.111 102.945 131.845 102.924 130.57 102.759C130.57 102.604 130.57 102.449 130.57 102.29C130.75 102.187 130.932 102.086 131.115 101.987C131.216 101.931 131.317 101.875 131.422 101.817C133.665 100.953 137.599 101.099 139.759 102.134Z" fill="#EDEDED"/>
<path d="M150.349 97.2925C154.85 97.1184 154.85 97.1184 156.579 98.0734C156.741 98.2769 156.898 98.4847 157.046 98.6981C155.883 99.2622 154.876 99.4326 153.591 99.4302C153.429 99.4365 153.267 99.4428 153.1 99.4494C152.252 99.4531 151.731 99.4093 151.11 98.7987C150.349 97.9052 150.349 97.9052 150.349 97.2925Z" fill="#F3F3F3"/>
<path d="M126.832 98.5419C127.522 99.0028 127.981 99.7059 128.389 100.416C128.389 100.519 128.389 100.622 128.389 100.728C123.962 100.81 123.962 100.81 122.315 100.26C122.459 99.6291 122.713 99.3822 123.24 99.0494C124.284 98.4311 125.647 98.1992 126.832 98.5419Z" fill="#F0F0F0"/>
<path d="M145.365 80.1133C145.468 80.1649 145.571 80.2164 145.677 80.2695C145.859 82.0882 145.396 83.0136 144.277 84.402C144.025 84.7005 143.774 84.9924 143.497 85.2671C143.445 85.2671 143.394 85.2671 143.341 85.2671C143.44 83.3111 144.265 81.7001 145.365 80.1133Z" fill="#F1F1F1"/>
<path d="M123.094 92.2949C124.643 92.345 126.01 92.8718 127.455 93.3881C127.455 93.5428 127.455 93.6974 127.455 93.8567C126.507 94.1298 125.449 94.2314 124.535 93.8201C123.609 93.219 123.609 93.219 123.406 92.6073C123.303 92.6073 123.2 92.6073 123.094 92.6073C123.094 92.5042 123.094 92.4011 123.094 92.2949Z" fill="#EBEBEB"/>
<path d="M136.644 31.0746C136.849 31.1777 137.055 31.2807 137.267 31.3869C137.267 31.6446 137.267 31.9023 137.267 32.1678C137.01 32.1163 136.753 32.0647 136.488 32.0116C136.391 31.7188 136.391 31.7188 136.332 31.3869C136.435 31.2839 136.538 31.1808 136.644 31.0746Z" fill="#E1E1E1"/>
<path d="M31.9966 48.3003C31.9714 48.4011 31.9588 48.502 31.9588 48.6029C31.9714 48.6911 31.9651 48.7542 31.9398 48.792C31.9272 48.8298 31.8831 48.8235 31.8075 48.7731C31.7318 48.71 31.5994 48.5776 31.4103 48.3759L30.9186 48.2246L30.7106 48.4327C30.6728 48.4705 30.635 48.502 30.5971 48.5272C30.4963 48.6155 30.4017 48.6281 30.3135 48.565C30.2378 48.4894 30.137 48.4011 30.0109 48.3003C29.91 48.212 29.8344 48.1553 29.784 48.1301C29.7461 48.1049 29.7209 48.1049 29.7083 48.1301C29.7083 48.1427 29.7083 48.1868 29.7083 48.2625C29.7209 48.3255 29.7209 48.4011 29.7083 48.4894C29.7083 48.5272 29.6768 48.5966 29.6137 48.6974C29.5507 48.7857 29.5192 48.8487 29.5192 48.8865C29.494 49 29.4562 49.0378 29.4057 49C29.3553 48.9622 29.3049 48.9496 29.2544 48.9622C29.2292 48.9622 29.1914 48.9496 29.141 48.9244C29.1031 48.8991 29.0527 48.8613 28.9897 48.8109C28.9392 48.7605 28.8825 48.6785 28.8195 48.565C28.769 48.439 28.7249 48.3381 28.6871 48.2625C28.6493 48.1742 28.6114 48.086 28.5736 47.9977C28.5358 47.9094 28.4917 47.8023 28.4412 47.6762C28.4034 47.5501 28.3593 47.3862 28.3089 47.1845C28.271 46.9828 28.2206 46.6109 28.1576 46.0687C28.0945 45.5266 28.0252 44.8773 27.9496 44.1209C27.8739 43.3518 27.7857 42.4945 27.6848 41.5489C27.5965 40.6034 27.502 39.6137 27.4011 38.5799C27.3129 37.5461 27.2183 36.4996 27.1175 35.4406C27.0166 34.369 26.922 33.3351 26.8338 32.3391C26.7455 31.3305 26.6636 30.3787 26.5879 29.4835C26.5123 28.5884 26.443 27.8004 26.3799 27.1196L18.6263 46.447C18.475 46.8126 18.2985 47.1467 18.0968 47.4493C17.895 47.7392 17.687 47.9788 17.4727 48.1679C17.271 48.3444 17.0692 48.4642 16.8675 48.5272C16.6784 48.5903 16.5208 48.5776 16.3947 48.4894C16.2056 48.3633 16.048 48.212 15.922 48.0355C15.8085 47.8464 15.7076 47.651 15.6194 47.4493C15.5437 47.2349 15.4744 47.0143 15.4114 46.7874C15.3483 46.5604 15.2727 46.3272 15.1844 46.0877C15.0583 45.722 14.8944 45.1358 14.6927 44.3289C14.5036 43.522 14.283 42.5828 14.0308 41.5111C13.7787 40.4269 13.5139 39.2481 13.2366 37.9747C12.9592 36.6887 12.6755 35.3902 12.3855 34.079C12.0956 32.7552 11.8119 31.4629 11.5345 30.2022C11.2698 28.9288 11.0176 27.7563 10.7781 26.6847C10.7151 27.1259 10.6142 27.7689 10.4755 28.6136C10.3368 29.4457 10.1729 30.4039 9.98381 31.4881C9.80731 32.5598 9.61189 33.7134 9.39756 34.9489C9.18323 36.1844 8.96891 37.42 8.75458 38.6555C8.55286 39.8911 8.35114 41.0888 8.14942 42.2487C7.9603 43.4086 7.7838 44.455 7.6199 45.3879C7.46861 46.3209 7.33623 47.0963 7.22276 47.714C7.1219 48.3192 7.06517 48.6974 7.05256 48.8487C7.05256 48.9622 7.02735 49.0819 6.97692 49.208C6.93909 49.3089 6.88236 49.416 6.80671 49.5295C6.74368 49.6556 6.65542 49.7754 6.54196 49.8888C6.4411 49.9267 6.34023 49.9645 6.23937 50.0023C6.13851 50.0401 6.05026 50.0401 5.97462 50.0023C5.88636 49.9645 5.83593 49.8951 5.82333 49.7943C5.81072 49.706 5.74138 49.6241 5.6153 49.5484C5.53966 49.4854 5.45771 49.435 5.36945 49.3971C5.2812 49.3719 5.19925 49.29 5.12361 49.1513C5.12361 49.063 5.111 48.9937 5.08578 48.9433C5.07318 48.9181 5.06057 48.8991 5.04796 48.8865C5.03535 48.8739 5.01644 48.8487 4.99123 48.8109C4.96601 48.7731 4.89037 48.6911 4.76429 48.565C4.68865 48.4137 4.63191 48.2499 4.59409 48.0733C4.56888 47.8842 4.58779 47.651 4.65082 47.3736C4.67604 47.2854 4.72647 47.0584 4.80212 46.6928C4.87776 46.3146 4.96601 45.8607 5.06687 45.3312C5.18034 44.7891 5.30011 44.1965 5.42619 43.5535C5.55226 42.898 5.67834 42.2361 5.80441 41.5679C5.93049 40.8997 6.04396 40.2567 6.14482 39.6389C6.25829 39.0211 6.35284 38.4727 6.42849 37.9936C6.50413 37.5776 6.6239 36.9913 6.7878 36.2349C6.96431 35.4658 7.16603 34.6148 7.39296 33.6818C7.6199 32.7489 7.85944 31.7718 8.11159 30.7506C8.37635 29.7294 8.6285 28.746 8.86805 27.8004C9.10759 26.8423 9.32192 25.966 9.51103 25.1718C9.71275 24.3649 9.86404 23.7219 9.9649 23.2428C9.93969 23.1798 9.92078 23.1167 9.90817 23.0537C9.89556 22.9907 9.88926 22.9276 9.88926 22.8646C9.83883 22.7385 9.84513 22.6692 9.90817 22.6566C9.98381 22.6439 10.0405 22.6187 10.0784 22.5809C10.0784 22.5557 10.0847 22.5368 10.0973 22.5242C10.1099 22.5116 10.1162 22.4927 10.1162 22.4674C10.1162 22.3918 10.1288 22.354 10.154 22.354C10.154 22.1901 10.1792 22.0829 10.2297 22.0325C10.2801 21.982 10.3305 21.9505 10.381 21.9379C10.444 21.9253 10.5007 21.919 10.5512 21.919C10.6016 21.919 10.6331 21.8812 10.6457 21.8055C10.6709 21.6416 10.6961 21.5345 10.7214 21.4841C10.7592 21.421 10.797 21.3958 10.8348 21.4084C10.8853 21.4084 10.9483 21.4336 11.0239 21.4841C11.0996 21.5219 11.1941 21.566 11.3076 21.6164C11.3706 21.6416 11.4211 21.6543 11.4589 21.6543C11.5093 21.6416 11.5598 21.6416 11.6102 21.6543C11.6606 21.6543 11.7173 21.6669 11.7804 21.6921C11.856 21.7173 11.9443 21.7677 12.0451 21.8434C12.1208 21.9064 12.1838 21.9379 12.2343 21.9379C12.2973 21.9379 12.3477 21.919 12.3855 21.8812C12.436 21.8434 12.4738 21.7992 12.499 21.7488C12.5368 21.6984 12.5684 21.6543 12.5936 21.6164C12.6314 21.5534 12.6881 21.5219 12.7638 21.5219C12.8394 21.5219 12.9088 21.5534 12.9718 21.6164C13.0474 21.7173 13.1042 21.7866 13.142 21.8245C13.1924 21.8623 13.224 21.8938 13.2366 21.919C13.2618 21.9316 13.2744 21.9442 13.2744 21.9568C13.2744 21.9568 13.2807 21.9757 13.2933 22.0136C13.4824 22.5809 13.6463 23.1735 13.785 23.7912C13.9363 24.409 14.0876 25.115 14.2389 25.9093C14.4028 26.7036 14.5919 27.6239 14.8062 28.6703C15.0205 29.7042 15.2916 30.9271 15.6194 32.3391C16.1615 34.7346 16.6343 36.7518 17.0377 38.3908C17.4412 40.0171 17.7816 41.2401 18.0589 42.0596C18.3111 41.4796 18.6137 40.7736 18.9667 39.9415C19.3323 39.1094 19.7168 38.2079 20.1203 37.2372C20.5237 36.2538 20.9461 35.2389 21.3873 34.1924C21.8286 33.1334 22.2636 32.087 22.6922 31.0532C23.1209 30.0194 23.5306 29.0297 23.9214 28.0841C24.3249 27.1385 24.6779 26.2875 24.9805 25.5311C25.2957 24.7746 25.5604 24.1379 25.7748 23.621C25.9891 23.1041 26.1278 22.77 26.1908 22.6187C26.2664 22.4422 26.3232 22.2972 26.361 22.1838C26.4114 22.0703 26.4682 21.982 26.5312 21.919C26.569 21.8181 26.6195 21.7488 26.6825 21.711C26.7581 21.6606 26.8401 21.6543 26.9283 21.6921C26.9536 21.7173 26.9851 21.7362 27.0229 21.7488C27.0481 21.774 27.0733 21.7929 27.0985 21.8055C27.1364 21.8055 27.1679 21.8181 27.1931 21.8434C27.2057 21.7803 27.2309 21.7488 27.2687 21.7488C27.3066 21.7362 27.3507 21.7299 27.4011 21.7299C27.4516 21.7425 27.5083 21.7551 27.5713 21.7677H27.6281H27.7037C27.7415 21.7425 27.7794 21.7236 27.8172 21.711C27.855 21.6858 27.8928 21.6921 27.9306 21.7299C28.0441 21.7929 28.1198 21.7992 28.1576 21.7488C28.208 21.6858 28.2837 21.6543 28.3845 21.6543C28.4476 21.6543 28.5043 21.6479 28.5547 21.6353C28.5925 21.6227 28.6304 21.6101 28.6682 21.5975C28.706 21.5723 28.7312 21.5408 28.7438 21.503C28.7943 21.503 28.8321 21.5093 28.8573 21.5219C28.8951 21.5345 28.9266 21.5471 28.9519 21.5597L29.0086 21.6164C29.0464 21.6669 29.1031 21.8875 29.1788 22.2783C29.2544 22.6566 29.3364 23.1293 29.4246 23.6967C29.5255 24.2514 29.6201 24.8566 29.7083 25.5122C29.8092 26.1678 29.8974 26.7918 29.9731 27.3844C29.9983 27.5861 30.0487 28.0337 30.1244 28.7271C30.2 29.4079 30.2883 30.2463 30.3891 31.2423C30.49 32.2257 30.6034 33.3225 30.7295 34.5329C30.8556 35.7432 30.9817 36.9661 31.1077 38.2016C31.2338 39.4372 31.3536 40.6475 31.4671 41.8326C31.5805 43.0051 31.6751 44.0578 31.7507 44.9908C31.839 45.9238 31.902 46.6928 31.9398 47.298C31.9903 47.8905 32.0092 48.2246 31.9966 48.3003ZM46.2655 37.918C46.2781 38.3592 46.2403 38.9014 46.1521 39.5443C46.0638 40.1747 45.9629 40.8555 45.8495 41.5868C45.736 42.3054 45.6288 43.0429 45.528 43.7994C45.4271 44.5558 45.3767 45.2682 45.3767 45.9364C45.3767 46.3776 45.4082 46.8 45.4713 47.2034C45.5343 47.5943 45.6415 47.9347 45.7927 48.2246C45.881 48.3885 45.9251 48.5335 45.9251 48.6596C45.9377 48.7857 45.9314 48.8991 45.9062 49C45.881 49.0883 45.8558 49.1639 45.8306 49.2269C45.8054 49.3026 45.8054 49.3719 45.8306 49.435C45.8558 49.498 45.8495 49.5673 45.8117 49.643C45.7738 49.7312 45.7171 49.8069 45.6415 49.8699C45.5658 49.9456 45.4776 49.996 45.3767 50.0212C45.2884 50.059 45.2065 50.0527 45.1309 50.0023C44.9922 49.914 44.8787 49.8636 44.7904 49.851C44.7148 49.8384 44.6455 49.8384 44.5824 49.851C44.532 49.8762 44.4816 49.9014 44.4311 49.9267C44.3933 49.9519 44.3429 49.9519 44.2798 49.9267C44.0655 49.8132 43.8323 49.6808 43.5801 49.5295C43.328 49.3782 43.1641 49.2143 43.0884 49.0378C43.038 48.9622 42.9876 48.8361 42.9371 48.6596C42.8993 48.4831 42.8615 48.2751 42.8237 48.0355C42.7985 47.796 42.7732 47.5375 42.748 47.2602C42.7228 46.9828 42.7039 46.7117 42.6913 46.447C42.2752 47.2286 41.8277 47.8779 41.3486 48.3948C40.8821 48.9117 40.4093 49.3215 39.9302 49.6241C39.4638 49.9393 38.9973 50.1599 38.5308 50.286C38.0769 50.412 37.6609 50.4751 37.2827 50.4751C36.8918 50.4751 36.5451 50.4247 36.2425 50.3238C35.9526 50.2229 35.7256 50.1032 35.5617 49.9645C34.944 49.3467 34.5027 48.8487 34.2379 48.4705C33.9858 48.0796 33.8723 47.7645 33.8975 47.5249C33.9606 46.718 34.156 45.9742 34.4838 45.2934C34.8116 44.6126 35.2213 43.9885 35.713 43.4212C36.2047 42.8412 36.7531 42.3243 37.3583 41.8704C37.9761 41.404 38.6001 40.9942 39.2305 40.6412C39.8735 40.2756 40.5039 39.973 41.1217 39.7335C41.7394 39.4813 42.3005 39.2796 42.8048 39.1283C42.7795 38.4475 42.748 37.8549 42.7102 37.3506C42.685 36.8337 42.6409 36.4555 42.5778 36.216C42.3887 35.4343 42.0987 34.8543 41.7079 34.4761C41.3171 34.0853 40.8443 33.8899 40.2896 33.8899C39.9365 33.8899 39.5772 34.0222 39.2116 34.287C38.8586 34.5518 38.5371 34.9111 38.2471 35.3649C37.9572 35.8188 37.7176 36.342 37.5285 36.9346C37.352 37.5271 37.2574 38.1512 37.2448 38.8068C37.2448 38.9707 37.2511 39.1283 37.2637 39.2796C37.2764 39.4309 37.2953 39.5885 37.3205 39.7524C37.3331 39.8406 37.3016 39.9037 37.2259 39.9415C37.1629 39.9793 37.0809 40.0108 36.9801 40.036C36.8792 40.0486 36.7721 40.0613 36.6586 40.0739C36.5451 40.0865 36.4506 40.1054 36.3749 40.1306C36.3119 40.1558 36.2614 40.1747 36.2236 40.1873C36.1858 40.1873 36.148 40.181 36.1102 40.1684C36.0723 40.1432 36.0219 40.1054 35.9589 40.055C35.9084 40.0045 35.8328 39.9415 35.7319 39.8658C35.6311 39.7902 35.5239 39.7272 35.4104 39.6767C35.3096 39.6263 35.215 39.5822 35.1268 39.5443C35.0511 39.5065 34.9818 39.475 34.9187 39.4498C34.8683 39.412 34.8431 39.3678 34.8431 39.3174C34.8431 38.5357 35.0133 37.7289 35.3537 36.8968C35.7067 36.0647 36.1732 35.3082 36.7531 34.6274C37.3457 33.934 38.0265 33.3667 38.7956 32.9254C39.5772 32.4841 40.403 32.2635 41.2729 32.2635C41.979 32.2635 42.5904 32.3707 43.1073 32.585C43.6243 32.7993 44.0655 33.0767 44.4311 33.4171C44.7968 33.7575 45.093 34.1357 45.32 34.5518C45.5595 34.9678 45.7423 35.3902 45.8684 35.8188C46.0071 36.2349 46.1016 36.632 46.1521 37.0102C46.2151 37.3759 46.2529 37.6784 46.2655 37.918ZM42.8426 41.2842C42.4644 41.4229 42.0483 41.6057 41.5944 41.8326C41.1406 42.0596 40.6804 42.3306 40.2139 42.6458C39.7474 42.9484 39.281 43.3014 38.8145 43.7048C38.348 44.1083 37.913 44.5558 37.5096 45.0475C37.0305 45.6149 36.6838 46.1192 36.4695 46.5604C36.2551 47.0017 36.1228 47.3799 36.0723 47.6951C36.0219 47.9977 36.0345 48.2372 36.1102 48.4137C36.1858 48.5903 36.2741 48.6974 36.3749 48.7352C36.7658 48.8865 37.1692 48.9054 37.5852 48.792C38.0139 48.6659 38.4362 48.4516 38.8523 48.149C39.281 47.8338 39.6907 47.4619 40.0815 47.0332C40.485 46.592 40.8632 46.1444 41.2162 45.6905C41.5692 45.224 41.8844 44.7702 42.1618 44.3289C42.4391 43.875 42.6661 43.4842 42.8426 43.1564V41.2842ZM60.5156 48.1868C60.5156 48.3381 60.4588 48.5083 60.3454 48.6974C60.2445 48.8739 60.0932 48.9622 59.8915 48.9622C59.778 48.9622 59.6898 48.9307 59.6267 48.8676C59.5637 48.8046 59.5007 48.7731 59.4376 48.7731C59.3494 48.7731 59.2611 48.8046 59.1729 48.8676C59.0972 48.9307 58.9649 48.9622 58.7757 48.9622C58.5236 48.9622 58.303 48.8739 58.1138 48.6974C57.9373 48.5083 57.7924 48.2751 57.6789 47.9977C57.5654 47.7077 57.4772 47.3988 57.4141 47.071C57.3637 46.7306 57.3385 46.4155 57.3385 46.1255C57.3385 45.5581 57.3574 44.9152 57.3952 44.1965C57.4456 43.4653 57.4961 42.7214 57.5465 41.965C57.6095 41.1959 57.66 40.4332 57.6978 39.6767C57.7482 38.9203 57.7734 38.2206 57.7734 37.5776C57.7734 36.7203 57.7167 36.0521 57.6032 35.573C57.4898 35.0939 57.288 34.8543 56.9981 34.8543C56.7207 34.8922 56.437 35.1317 56.1471 35.573C55.8571 36.0142 55.5608 36.5816 55.2582 37.275C54.9557 37.9558 54.6594 38.7312 54.3694 39.6011C54.0794 40.4584 53.7958 41.3409 53.5184 42.2487C53.2536 43.1438 53.0015 44.02 52.7619 44.8773C52.5224 45.722 52.3081 46.4785 52.119 47.1467C51.9298 47.8149 51.7659 48.357 51.6273 48.7731C51.4886 49.1765 51.394 49.3782 51.3436 49.3782C51.2427 49.3782 51.1671 49.353 51.1167 49.3026C51.0662 49.2648 51.0158 49.2206 50.9654 49.1702C50.9275 49.1198 50.8771 49.0693 50.8141 49.0189C50.751 48.9811 50.6565 48.9622 50.5304 48.9622C50.4169 48.9622 50.3413 48.9748 50.3035 49C50.2657 49.0252 50.2215 49.0567 50.1711 49.0946C50.1207 49.1324 50.0576 49.1639 49.982 49.1891C49.9063 49.2143 49.774 49.2269 49.5848 49.2269C49.3579 49.2269 49.131 49.1702 48.904 49.0567C48.6897 48.9433 48.5825 48.7668 48.5825 48.5272C48.5825 48.3759 48.6078 48.067 48.6582 47.6006C48.7086 47.1215 48.7654 46.5415 48.8284 45.8607C48.904 45.1673 48.9797 44.3982 49.0553 43.5535C49.1436 42.6962 49.2192 41.8137 49.2823 40.906C49.3579 39.9982 49.4209 39.0905 49.4714 38.1827C49.5218 37.275 49.547 36.4114 49.547 35.5919C49.547 35.1884 49.5407 34.8165 49.5281 34.4761C49.5155 34.1231 49.5092 33.789 49.5092 33.4738C49.5092 33.3982 49.547 33.3604 49.6227 33.3604C49.774 33.3604 49.8874 33.3919 49.9631 33.4549C50.0513 33.5053 50.1144 33.5621 50.1522 33.6251C50.19 33.6881 50.2089 33.7512 50.2089 33.8142C50.2215 33.8647 50.2341 33.8899 50.2467 33.8899C50.2846 33.8899 50.3287 33.871 50.3791 33.8331C50.4295 33.7827 50.48 33.7323 50.5304 33.6818C50.5934 33.6314 50.6502 33.5873 50.7006 33.5495C50.751 33.499 50.7952 33.4738 50.833 33.4738H51.0221C51.2112 33.4738 51.3436 33.4486 51.4192 33.3982C51.4949 33.3351 51.5453 33.2721 51.5705 33.2091C51.6084 33.1334 51.6336 33.0704 51.6462 33.0199C51.6588 32.9569 51.6966 32.9254 51.7596 32.9254C51.7975 32.9254 51.8479 32.9569 51.9109 33.0199C51.9866 33.0704 52.0559 33.1649 52.119 33.3036C52.1946 33.4297 52.2576 33.5999 52.3081 33.8142C52.3585 34.0285 52.3837 34.287 52.3837 34.5896C52.3837 34.993 52.3648 35.5036 52.327 36.1214C52.3018 36.7392 52.2639 37.4011 52.2135 38.1071C52.1757 38.8005 52.1379 39.5065 52.1 40.2252C52.0622 40.9312 52.037 41.5742 52.0244 42.1541C52.1631 41.612 52.327 41.0131 52.5161 40.3575C52.7178 39.6893 52.9448 39.0148 53.1969 38.334C53.4617 37.6532 53.7453 36.9913 54.0479 36.3483C54.3505 35.6927 54.6783 35.1128 55.0313 34.6085C55.3843 34.1042 55.7562 33.7008 56.1471 33.3982C56.5379 33.083 56.9476 32.9254 57.3763 32.9254C58.0571 32.9254 58.6118 33.0515 59.0405 33.3036C59.4818 33.5558 59.8285 33.9025 60.0806 34.3437C60.3328 34.785 60.503 35.3019 60.5912 35.8945C60.6921 36.487 60.7425 37.1237 60.7425 37.8045C60.7425 38.3845 60.7173 38.9959 60.6669 39.6389C60.6164 40.2693 60.5597 40.906 60.4967 41.5489C60.4462 42.1793 60.3958 42.8034 60.3454 43.4212C60.3076 44.0389 60.2886 44.6189 60.2886 45.161C60.2886 45.8292 60.3265 46.4344 60.4021 46.9765C60.4778 47.506 60.5156 47.9094 60.5156 48.1868ZM68.9031 26.7603C68.9031 26.8359 68.8905 27.0377 68.8653 27.3655C68.8401 27.6807 68.8023 28.103 68.7518 28.6325C68.714 29.162 68.6636 29.7798 68.6005 30.4858C68.5375 31.1792 68.4745 31.9294 68.4114 32.7363C69.2057 32.6354 69.9559 32.5598 70.6619 32.5093C71.3805 32.4463 71.9857 32.4148 72.4774 32.4148C72.6413 32.4148 72.7862 32.4463 72.9123 32.5093C73.0384 32.5724 73.1393 32.648 73.2149 32.7363C73.3032 32.8119 73.3725 32.9002 73.4229 33.001C73.4734 33.0893 73.5049 33.1649 73.5175 33.228C73.5175 33.291 73.5238 33.354 73.5364 33.4171C73.549 33.4675 73.5553 33.5242 73.5553 33.5873C73.5553 33.8394 73.4418 34.0916 73.2149 34.3437C73.0006 34.5959 72.6728 34.7535 72.2315 34.8165L68.2034 35.2515C68.1404 36.1592 68.0836 37.0922 68.0332 38.0504C67.9828 39.0085 67.9323 39.9667 67.8819 40.9249C67.8441 41.8704 67.8126 42.8034 67.7874 43.7237C67.7621 44.6441 67.7495 45.514 67.7495 46.3335C67.7495 46.863 67.7621 47.2917 67.7874 47.6195C67.8126 47.9473 67.8252 48.1616 67.8252 48.2625C67.8252 48.4768 67.7811 48.6911 67.6928 48.9054C67.6172 49.1072 67.5226 49.29 67.4091 49.4539C67.3083 49.6304 67.1948 49.7691 67.0687 49.8699C66.9553 49.9834 66.8607 50.0401 66.7851 50.0401C66.3312 50.0401 65.9719 49.8951 65.7071 49.6052C65.4424 49.3278 65.2406 48.9496 65.1019 48.4705C64.9759 47.9914 64.8939 47.443 64.8561 46.8252C64.8183 46.2074 64.7994 45.5644 64.7994 44.8962C64.7994 43.3203 64.8435 41.7444 64.9317 40.1684C65.02 38.5799 65.1461 37.0544 65.31 35.5919L62.9461 35.8756C62.9082 35.8756 62.8704 35.8819 62.8326 35.8945C62.7948 35.9071 62.7506 35.9134 62.7002 35.9134C62.4607 35.9134 62.2716 35.8566 62.1329 35.7432C61.9816 35.6297 61.8681 35.4973 61.7925 35.346C61.7168 35.1947 61.6727 35.0435 61.6601 34.8922C61.6349 34.7283 61.6223 34.6022 61.6223 34.5139C61.6223 34.3374 61.6475 34.1735 61.6979 34.0222C61.7483 33.871 61.8429 33.7764 61.9816 33.7386C62.2463 33.6377 62.7065 33.5306 63.3621 33.4171C64.0303 33.291 64.7805 33.1649 65.6126 33.0389C65.7512 32.0176 65.8899 31.0847 66.0286 30.24C66.1799 29.3827 66.3249 28.6451 66.4636 28.0274C66.6022 27.397 66.7283 26.9116 66.8418 26.5712C66.9679 26.2182 67.075 26.0417 67.1633 26.0417C67.1885 26.0417 67.22 26.048 67.2578 26.0606C67.2957 26.0732 67.3272 26.0795 67.3524 26.0795C67.428 26.0795 67.4848 26.0417 67.5226 25.966C67.573 25.8778 67.6613 25.8337 67.7874 25.8337C67.9008 25.8337 68.0206 25.8715 68.1467 25.9471C68.2854 26.0102 68.4051 26.0921 68.506 26.193C68.6195 26.2938 68.714 26.401 68.7897 26.5145C68.8653 26.6153 68.9031 26.6973 68.9031 26.7603ZM85.8007 41.0194C85.8007 42.3432 85.6053 43.5346 85.2145 44.5937C84.8363 45.6527 84.3131 46.5541 83.6449 47.298C82.9893 48.0418 82.2265 48.6155 81.3566 49.0189C80.4867 49.4224 79.5663 49.6241 78.5955 49.6241C78.1921 49.6241 77.7508 49.5736 77.2717 49.4728C76.7927 49.3845 76.3136 49.2332 75.8345 49.0189C75.3554 48.8046 74.8889 48.5209 74.4351 48.1679C73.9812 47.8149 73.5777 47.3799 73.2247 46.863C72.8717 46.3461 72.588 45.741 72.3737 45.0475C72.172 44.3541 72.0774 43.5535 72.09 42.6458C72.09 41.612 72.2161 40.6727 72.4683 39.828C72.7204 38.9707 73.0419 38.2079 73.4328 37.5397C73.8362 36.8589 74.2901 36.2727 74.7944 35.781C75.2987 35.2893 75.803 34.8796 76.3073 34.5518C76.8116 34.2114 77.297 33.9592 77.7634 33.7953C78.2299 33.6314 78.6334 33.5369 78.9738 33.5116C79.1503 33.499 79.2259 33.5179 79.2007 33.5684C79.1881 33.6188 79.144 33.6755 79.0683 33.7386C78.9927 33.8016 78.9233 33.8647 78.8603 33.9277C78.8099 33.9907 78.8351 34.0285 78.9359 34.0412C79.0242 34.0664 79.0935 34.0916 79.144 34.1168C79.207 34.142 79.27 34.1735 79.3331 34.2114L79.4844 34.0412C79.5726 33.9781 79.6546 33.9466 79.7302 33.9466C79.8185 33.9466 79.8941 33.9592 79.9572 33.9844C80.0202 33.997 80.0706 34.0033 80.1084 34.0033C80.1463 34.0033 80.1715 33.9655 80.1841 33.8899C80.2093 33.7512 80.2534 33.6755 80.3165 33.6629C80.3921 33.6377 80.556 33.6251 80.8082 33.6251C80.9595 33.6251 81.1864 33.6692 81.489 33.7575C81.8042 33.8457 82.1446 33.997 82.5102 34.2114C82.8884 34.4257 83.2666 34.7157 83.6449 35.0813C84.0357 35.4343 84.3887 35.8882 84.7039 36.4429C85.0317 36.985 85.2964 37.6343 85.4982 38.3908C85.6999 39.1472 85.8007 40.0234 85.8007 41.0194ZM78.9738 35.4784C78.5325 35.7432 78.0975 36.1025 77.6689 36.5564C77.2402 37.0102 76.8494 37.5334 76.4964 38.126C76.156 38.7186 75.8786 39.3804 75.6643 40.1117C75.45 40.8429 75.3428 41.612 75.3428 42.4189C75.3428 43.2888 75.4184 44.0768 75.5697 44.7828C75.7336 45.4888 75.9669 46.094 76.2694 46.5983C76.572 47.09 76.9376 47.4745 77.3663 47.7519C77.8076 48.0166 78.3056 48.149 78.8603 48.149C79.352 48.149 79.8374 48.0103 80.3165 47.7329C80.8082 47.4556 81.2431 47.0395 81.6213 46.4848C81.9996 45.9301 82.3022 45.243 82.5291 44.4235C82.7686 43.604 82.8884 42.6521 82.8884 41.5679C82.8884 40.471 82.7434 39.5507 82.4534 38.8068C82.1635 38.063 81.8357 37.4641 81.4701 37.0102C81.117 36.5438 80.7766 36.216 80.4488 36.0268C80.1211 35.8251 79.9193 35.7243 79.8437 35.7243C79.6672 35.7243 79.5285 35.7243 79.4276 35.7243C79.3394 35.7243 79.1881 35.6423 78.9738 35.4784ZM15.7185 63.5431C16.1723 63.5431 16.6766 63.5809 17.2314 63.6566C17.7987 63.7322 18.3535 63.8583 18.8956 64.0348C19.4503 64.2113 19.9609 64.4445 20.4274 64.7345C20.8939 65.0119 21.2532 65.3649 21.5053 65.7935C21.8205 66.0205 22.1042 66.3546 22.3563 66.7958C22.5833 67.2749 22.6967 67.7288 22.6967 68.1574C22.6967 68.6365 22.6085 69.0778 22.432 69.4812C22.2681 69.8847 22.0538 70.2503 21.789 70.5781C21.5242 70.9059 21.2343 71.1959 20.9191 71.448C20.6165 71.7002 20.3202 71.9145 20.0303 72.091C19.7403 72.2549 19.4881 72.381 19.2738 72.4692C19.0595 72.5575 18.9208 72.6016 18.8578 72.6016C18.7947 72.6016 18.6876 72.5701 18.5363 72.507C18.3976 72.444 18.2589 72.3684 18.1202 72.2801C17.9563 72.1919 17.7798 72.0847 17.5907 71.9586C17.5907 71.946 17.7105 71.8704 17.95 71.7317C18.1896 71.593 18.4543 71.3787 18.7443 71.0887C19.0469 70.7987 19.3179 70.4205 19.5575 69.954C19.797 69.4749 19.9168 68.8887 19.9168 68.1953C19.8033 67.9683 19.6457 67.754 19.444 67.5523C19.2423 67.338 18.9838 67.1551 18.6686 67.0039C18.3535 66.84 17.9689 66.7076 17.5151 66.6067C17.0738 66.5059 16.5443 66.4554 15.9265 66.4554C15.7122 66.4554 15.3844 66.4869 14.9431 66.55C14.5018 66.613 13.9912 66.7265 13.4113 66.8904C12.8314 67.0543 12.201 67.2812 11.5202 67.5712C10.852 67.8486 10.1775 68.2205 9.49666 68.687C8.82846 69.1408 8.17917 69.6956 7.54879 70.3512C6.93102 70.9941 6.3826 71.7569 5.90351 72.6394C5.42442 73.5093 5.03989 74.5116 4.74992 75.6463C4.47255 76.781 4.33387 78.067 4.33387 79.5042C4.33387 80.2859 4.39691 80.9982 4.52298 81.6412C4.64906 82.2716 4.81296 82.8452 5.01468 83.3621C5.22901 83.8664 5.47485 84.3203 5.75222 84.7237C6.02958 85.1146 6.31956 85.4676 6.62214 85.7828C6.81125 85.8836 7.02558 86.016 7.26512 86.1799C7.50467 86.3312 7.82616 86.4825 8.2296 86.6338C8.64565 86.7725 9.17517 86.8985 9.81815 87.012C10.4611 87.1129 11.2806 87.1633 12.2766 87.1633C13.1339 87.1633 13.9471 87.0624 14.7162 86.8607C15.4978 86.659 16.2228 86.4005 16.891 86.0854C17.5718 85.7702 18.1959 85.4235 18.7632 85.0452C19.3305 84.6544 19.8285 84.2762 20.2572 83.9106C20.6985 83.5323 21.0641 83.1919 21.354 82.8893C21.644 82.5742 21.8457 82.3346 21.9592 82.1707C22.1988 81.8429 22.369 81.6349 22.4698 81.5466C22.5707 81.4458 22.6589 81.3954 22.7346 81.3954C22.7976 81.3954 22.8543 81.4017 22.9048 81.4143C22.9678 81.4269 23.0308 81.4332 23.0939 81.4332C23.2074 81.4332 23.2767 81.3764 23.3019 81.263C23.3271 81.1495 23.3586 81.0928 23.3965 81.0928C23.4217 81.0928 23.4406 81.1432 23.4532 81.2441C23.4658 81.3449 23.4721 81.4647 23.4721 81.6034C23.4721 81.679 23.4658 81.7547 23.4532 81.8303C23.4406 81.8934 23.4343 81.9564 23.4343 82.0194C23.4217 82.0951 23.3649 82.3535 23.2641 82.7948C23.1758 83.2234 22.9993 83.7404 22.7346 84.3455C22.4824 84.9381 22.1231 85.5748 21.6566 86.2556C21.1901 86.9364 20.585 87.5667 19.8411 88.1467C19.1099 88.7266 18.2148 89.2057 17.1557 89.584C16.0967 89.9622 14.8486 90.1513 13.4113 90.1513C12.5414 90.1513 11.7345 90.0756 10.9907 89.9244C10.2594 89.7605 9.59752 89.565 9.00496 89.3381C8.42502 89.0986 7.90811 88.8401 7.45424 88.5627C7.00036 88.2728 6.62214 88.0017 6.31956 87.7496C5.67657 87.3839 5.0588 86.9175 4.46625 86.3501C3.8737 85.7828 3.35048 85.102 2.89661 84.3077C2.44274 83.5134 2.07712 82.5931 1.79976 81.5466C1.535 80.4876 1.40262 79.2899 1.40262 77.9535C1.40262 76.6171 1.57912 75.3311 1.93213 74.0956C2.28515 72.8601 2.77684 71.7065 3.40722 70.6348C4.0502 69.5632 4.81296 68.5924 5.69548 67.7225C6.57801 66.8526 7.54879 66.1087 8.60783 65.4909C9.66686 64.8732 10.7952 64.3941 11.9929 64.0537C13.2033 63.7133 14.4451 63.5431 15.7185 63.5431ZM36.7199 78.918C36.7325 79.3592 36.6946 79.9014 36.6064 80.5443C36.5181 81.1747 36.4173 81.8555 36.3038 82.5868C36.1903 83.3054 36.0832 84.0429 35.9823 84.7994C35.8815 85.5558 35.831 86.2682 35.831 86.9364C35.831 87.3776 35.8625 87.8 35.9256 88.2034C35.9886 88.5943 36.0958 88.9347 36.2471 89.2246C36.3353 89.3885 36.3795 89.5335 36.3795 89.6596C36.3921 89.7857 36.3858 89.8991 36.3605 90C36.3353 90.0883 36.3101 90.1639 36.2849 90.2269C36.2597 90.3026 36.2597 90.3719 36.2849 90.435C36.3101 90.498 36.3038 90.5673 36.266 90.643C36.2282 90.7312 36.1714 90.8069 36.0958 90.8699C36.0201 90.9456 35.9319 90.996 35.831 91.0212C35.7428 91.059 35.6608 91.0527 35.5852 91.0023C35.4465 90.914 35.333 90.8636 35.2448 90.851C35.1691 90.8384 35.0998 90.8384 35.0368 90.851C34.9863 90.8762 34.9359 90.9014 34.8855 90.9267C34.8476 90.9519 34.7972 90.9519 34.7342 90.9267C34.5198 90.8132 34.2866 90.6808 34.0345 90.5295C33.7823 90.3782 33.6184 90.2143 33.5428 90.0378C33.4923 89.9622 33.4419 89.8361 33.3915 89.6596C33.3536 89.4831 33.3158 89.2751 33.278 89.0355C33.2528 88.796 33.2276 88.5375 33.2024 88.2602C33.1771 87.9828 33.1582 87.7117 33.1456 87.447C32.7296 88.2286 32.282 88.8779 31.8029 89.3948C31.3364 89.9117 30.8637 90.3215 30.3846 90.6241C29.9181 90.9393 29.4516 91.1599 28.9851 91.286C28.5313 91.412 28.1152 91.4751 27.737 91.4751C27.3462 91.4751 26.9994 91.4247 26.6969 91.3238C26.4069 91.2229 26.18 91.1032 26.0161 90.9645C25.3983 90.3467 24.957 89.8487 24.6923 89.4705C24.4401 89.0796 24.3266 88.7645 24.3519 88.5249C24.4149 87.718 24.6103 86.9742 24.9381 86.2934C25.2659 85.6126 25.6757 84.9885 26.1674 84.4212C26.659 83.8412 27.2075 83.3243 27.8126 82.8704C28.4304 82.404 29.0545 81.9942 29.6849 81.6412C30.3278 81.2756 30.9582 80.973 31.576 80.7335C32.1938 80.4813 32.7548 80.2796 33.2591 80.1283C33.2339 79.4475 33.2024 78.8549 33.1645 78.3506C33.1393 77.8337 33.0952 77.4555 33.0322 77.216C32.843 76.4343 32.5531 75.8543 32.1622 75.4761C31.7714 75.0853 31.2986 74.8899 30.7439 74.8899C30.3909 74.8899 30.0316 75.0222 29.6659 75.287C29.3129 75.5518 28.9914 75.9111 28.7015 76.3649C28.4115 76.8188 28.1719 77.342 27.9828 77.9346C27.8063 78.5271 27.7118 79.1512 27.6992 79.8068C27.6992 79.9707 27.7055 80.1283 27.7181 80.2796C27.7307 80.4309 27.7496 80.5885 27.7748 80.7524C27.7874 80.8406 27.7559 80.9037 27.6803 80.9415C27.6172 80.9793 27.5353 81.0108 27.4344 81.036C27.3335 81.0486 27.2264 81.0613 27.1129 81.0739C26.9994 81.0865 26.9049 81.1054 26.8292 81.1306C26.7662 81.1558 26.7158 81.1747 26.678 81.1873C26.6401 81.1873 26.6023 81.181 26.5645 81.1684C26.5267 81.1432 26.4762 81.1054 26.4132 81.055C26.3628 81.0045 26.2871 80.9415 26.1863 80.8658C26.0854 80.7902 25.9782 80.7272 25.8648 80.6767C25.7639 80.6263 25.6694 80.5822 25.5811 80.5443C25.5055 80.5065 25.4361 80.475 25.3731 80.4498C25.3226 80.412 25.2974 80.3678 25.2974 80.3174C25.2974 79.5357 25.4676 78.7289 25.808 77.8968C26.161 77.0647 26.6275 76.3082 27.2075 75.6274C27.8 74.934 28.4808 74.3667 29.2499 73.9254C30.0316 73.4841 30.8574 73.2635 31.7273 73.2635C32.4333 73.2635 33.0448 73.3707 33.5617 73.585C34.0786 73.7993 34.5198 74.0767 34.8855 74.4171C35.2511 74.7575 35.5474 75.1357 35.7743 75.5518C36.0138 75.9678 36.1966 76.3902 36.3227 76.8188C36.4614 77.2349 36.556 77.632 36.6064 78.0102C36.6694 78.3759 36.7073 78.6784 36.7199 78.918ZM33.2969 82.2842C32.9187 82.4229 32.5026 82.6057 32.0488 82.8326C31.5949 83.0596 31.1347 83.3306 30.6682 83.6458C30.2018 83.9484 29.7353 84.3014 29.2688 84.7048C28.8023 85.1083 28.3674 85.5558 27.9639 86.0475C27.4848 86.6149 27.1381 87.1192 26.9238 87.5604C26.7095 88.0017 26.5771 88.3799 26.5267 88.6951C26.4762 88.9977 26.4888 89.2372 26.5645 89.4137C26.6401 89.5903 26.7284 89.6974 26.8292 89.7352C27.2201 89.8865 27.6235 89.9054 28.0396 89.792C28.4682 89.6659 28.8906 89.4516 29.3066 89.149C29.7353 88.8338 30.145 88.4619 30.5359 88.0332C30.9393 87.592 31.3175 87.1444 31.6705 86.6905C32.0236 86.224 32.3387 85.7702 32.6161 85.3289C32.8935 84.875 33.1204 84.4842 33.2969 84.1564V82.2842ZM52.445 84.1942C52.445 84.9129 52.2874 85.6441 51.9722 86.3879C51.657 87.1318 51.2094 87.8126 50.6295 88.4304C50.0622 89.0355 49.3687 89.5335 48.5493 89.9244C47.7298 90.3152 46.8094 90.5106 45.7882 90.5106C44.9561 90.5106 44.1114 90.3341 43.2541 89.9811C42.4094 89.6281 41.6466 89.1238 40.9658 88.4682C40.285 87.8 39.7303 86.9931 39.3016 86.0475C38.873 85.102 38.6586 84.0429 38.6586 82.8704C38.6586 81.7105 38.8793 80.6137 39.3205 79.5799C39.7744 78.5334 40.367 77.6257 41.0982 76.8566C41.8294 76.075 42.6615 75.4572 43.5945 75.0033C44.5401 74.5495 45.5108 74.3225 46.5068 74.3225C47.4272 74.3225 48.2026 74.4486 48.8329 74.7008C49.4759 74.9403 49.9928 75.2303 50.3837 75.5707C50.7745 75.8985 51.0519 76.2389 51.2158 76.5919C51.3923 76.9449 51.4805 77.2286 51.4805 77.4429C51.4805 77.922 51.3797 78.3128 51.1779 78.6154C50.9762 78.918 50.743 79.1449 50.4782 79.2962C50.2261 79.4475 49.9802 79.5357 49.7407 79.561C49.5137 79.5736 49.3687 79.5294 49.3057 79.4286C49.2553 79.3781 49.1985 79.3529 49.1355 79.3529C49.0851 79.3529 49.0283 79.3655 48.9653 79.3908C48.9023 79.416 48.8392 79.4412 48.7762 79.4664C48.7258 79.4916 48.6816 79.4916 48.6438 79.4664C48.5808 79.4412 48.5745 79.3845 48.6249 79.2962C48.6879 79.2079 48.7195 79.1323 48.7195 79.0693C48.7195 78.9558 48.7132 78.8297 48.7005 78.691C48.7005 78.5397 48.7321 78.3822 48.7951 78.2183C48.9086 77.9913 48.9527 77.7455 48.9275 77.4807C48.9149 77.2033 48.8203 76.9449 48.6438 76.7054C48.4799 76.4658 48.2152 76.2641 47.8495 76.1002C47.4965 75.9363 47.0364 75.8543 46.469 75.8543C46.0656 75.8543 45.5865 75.9867 45.0318 76.2515C44.477 76.5162 43.9475 76.9323 43.4432 77.4996C42.9515 78.0544 42.5292 78.7667 42.1761 79.6366C41.8357 80.4939 41.6655 81.5214 41.6655 82.7191C41.6655 83.2361 41.7286 83.7782 41.8547 84.3455C41.9933 84.9129 42.2329 85.4361 42.5733 85.9152C42.9137 86.3942 43.3739 86.7914 43.9538 87.1066C44.5338 87.4092 45.2713 87.5604 46.1664 87.5604C46.759 87.5604 47.3011 87.4785 47.7928 87.3146C48.2971 87.1507 48.751 86.9427 49.1544 86.6905C49.5579 86.4384 49.9172 86.161 50.2324 85.8584C50.5476 85.5558 50.8123 85.2722 51.0266 85.0074C51.241 84.73 51.4049 84.4905 51.5183 84.2888C51.6444 84.0871 51.7201 83.961 51.7453 83.9106C51.7957 83.8475 51.8587 83.8034 51.9344 83.7782C52.01 83.7404 52.0857 83.7341 52.1613 83.7593C52.237 83.7719 52.3 83.816 52.3504 83.8916C52.4135 83.9547 52.445 84.0555 52.445 84.1942ZM59.6222 67.7603C59.6222 67.8359 59.6096 68.0377 59.5844 68.3655C59.5592 68.6807 59.5213 69.103 59.4709 69.6325C59.4331 70.162 59.3827 70.7798 59.3196 71.4858C59.2566 72.1792 59.1936 72.9294 59.1305 73.7363C59.9248 73.6354 60.6749 73.5598 61.381 73.5093C62.0996 73.4463 62.7048 73.4148 63.1964 73.4148C63.3603 73.4148 63.5053 73.4463 63.6314 73.5093C63.7575 73.5724 63.8583 73.648 63.934 73.7363C64.0222 73.8119 64.0916 73.9002 64.142 74.001C64.1924 74.0893 64.224 74.1649 64.2366 74.228C64.2366 74.291 64.2429 74.354 64.2555 74.4171C64.2681 74.4675 64.2744 74.5242 64.2744 74.5873C64.2744 74.8394 64.1609 75.0916 63.934 75.3437C63.7197 75.5959 63.3919 75.7535 62.9506 75.8165L58.9225 76.2515C58.8595 77.1592 58.8027 78.0922 58.7523 79.0504C58.7019 80.0085 58.6514 80.9667 58.601 81.9249C58.5632 82.8704 58.5317 83.8034 58.5064 84.7237C58.4812 85.6441 58.4686 86.514 58.4686 87.3335C58.4686 87.863 58.4812 88.2917 58.5064 88.6195C58.5317 88.9473 58.5443 89.1616 58.5443 89.2625C58.5443 89.4768 58.5001 89.6911 58.4119 89.9054C58.3362 90.1072 58.2417 90.29 58.1282 90.4539C58.0274 90.6304 57.9139 90.7691 57.7878 90.8699C57.6743 90.9834 57.5798 91.0401 57.5041 91.0401C57.0503 91.0401 56.691 90.8951 56.4262 90.6052C56.1614 90.3278 55.9597 89.9496 55.821 89.4705C55.695 88.9914 55.613 88.443 55.5752 87.8252C55.5374 87.2074 55.5185 86.5644 55.5185 85.8962C55.5185 84.3203 55.5626 82.7444 55.6508 81.1684C55.7391 79.5799 55.8652 78.0544 56.0291 76.5919L53.6651 76.8756C53.6273 76.8756 53.5895 76.8819 53.5517 76.8945C53.5139 76.9071 53.4697 76.9134 53.4193 76.9134C53.1798 76.9134 52.9906 76.8566 52.852 76.7432C52.7007 76.6297 52.5872 76.4973 52.5116 76.346C52.4359 76.1947 52.3918 76.0435 52.3792 75.8922C52.354 75.7283 52.3414 75.6022 52.3414 75.5139C52.3414 75.3374 52.3666 75.1735 52.417 75.0222C52.4674 74.871 52.562 74.7764 52.7007 74.7386C52.9654 74.6377 53.4256 74.5306 54.0812 74.4171C54.7494 74.291 55.4995 74.1649 56.3316 74.0389C56.4703 73.0176 56.609 72.0847 56.7477 71.24C56.899 70.3827 57.044 69.6451 57.1826 69.0274C57.3213 68.397 57.4474 67.9116 57.5609 67.5712C57.687 67.2182 57.7941 67.0417 57.8824 67.0417C57.9076 67.0417 57.9391 67.048 57.9769 67.0606C58.0147 67.0732 58.0463 67.0795 58.0715 67.0795C58.1471 67.0795 58.2039 67.0417 58.2417 66.966C58.2921 66.8778 58.3804 66.8337 58.5064 66.8337C58.6199 66.8337 58.7397 66.8715 58.8658 66.9471C59.0044 67.0102 59.1242 67.0921 59.2251 67.193C59.3385 67.2938 59.4331 67.401 59.5087 67.5145C59.5844 67.6153 59.6222 67.6973 59.6222 67.7603ZM75.0826 89.8865C75.0826 90 74.988 90.1387 74.7989 90.3026C74.6098 90.4665 74.3703 90.5484 74.0803 90.5484C73.992 90.5484 73.8281 90.5043 73.5886 90.416C73.3616 90.3278 73.1221 90.1954 72.87 90.0189C72.6178 89.855 72.3909 89.6533 72.1891 89.4137C71.9874 89.1616 71.8803 88.8779 71.8677 88.5627C71.8424 88.4241 71.8298 88.2349 71.8298 87.9954C71.8298 87.7433 71.8298 87.4533 71.8298 87.1255C71.8298 86.6212 71.8298 86.0601 71.8298 85.4424C71.8298 84.8246 71.8424 84.2005 71.8677 83.5702C71.7794 84.024 71.6722 84.4968 71.5462 84.9885C71.4201 85.4676 71.2625 85.9467 71.0734 86.4258C70.8843 86.9048 70.6636 87.3776 70.4115 87.8441C70.1593 88.3106 69.8694 88.7582 69.5416 89.1868C69.3651 89.4137 69.1759 89.6092 68.9742 89.7731C68.7851 89.9244 68.596 90.0504 68.4069 90.1513C68.2178 90.2648 68.0413 90.3467 67.8774 90.3971C67.7135 90.4476 67.5874 90.4728 67.4991 90.4728C67.4487 90.4728 67.3289 90.416 67.1398 90.3026C66.9633 90.2017 66.749 90.0693 66.4968 89.9054C66.2573 89.7289 65.9988 89.5398 65.7215 89.3381C65.4441 89.1238 65.1794 88.9158 64.9272 88.714C64.6751 88.4997 64.4481 88.3043 64.2464 88.1278C64.0447 87.9387 63.8997 87.7874 63.8114 87.6739C63.7232 87.5478 63.6412 87.3335 63.5656 87.0309C63.5026 86.7283 63.4458 86.3564 63.3954 85.9152C63.345 85.4739 63.3008 84.9759 63.263 84.4212C63.2378 83.8664 63.2252 83.2739 63.2252 82.6435C63.2252 82.3031 63.2315 81.8618 63.2441 81.3197C63.2567 80.7776 63.2819 80.1976 63.3197 79.5799C63.3576 78.9495 63.4017 78.3191 63.4521 77.6887C63.5152 77.0458 63.5845 76.4721 63.6601 75.9678C63.7484 75.4509 63.8493 75.0349 63.9627 74.7197C64.0762 74.3919 64.2086 74.228 64.3599 74.228C64.4607 74.228 64.6372 74.2595 64.8894 74.3225C65.1415 74.373 65.4 74.3982 65.6647 74.3982C66.0556 74.3982 66.3266 74.3667 66.4779 74.3036C66.6418 74.228 66.7616 74.1901 66.8372 74.1901C66.9633 74.1901 67.0264 74.2973 67.0264 74.5116C67.0264 74.5747 67.0264 74.6377 67.0264 74.7008C67.0264 74.7512 67.0138 74.8142 66.9885 74.8899C66.9759 74.9655 66.9444 75.1609 66.894 75.4761C66.8562 75.7913 66.8057 76.1947 66.7427 76.6864C66.6797 77.1781 66.6166 77.7329 66.5536 78.3506C66.4905 78.9558 66.4275 79.5925 66.3645 80.2607C66.314 80.9289 66.2699 81.6034 66.2321 82.2842C66.1943 82.965 66.1754 83.6143 66.1754 84.2321C66.1754 84.6481 66.1817 85.0641 66.1943 85.4802C66.2195 85.8962 66.2573 86.2745 66.3077 86.6149C66.3582 86.9553 66.4275 87.2326 66.5158 87.447C66.604 87.6487 66.7112 87.7496 66.8372 87.7496C66.9507 87.7496 67.1083 87.6991 67.31 87.5983C67.5244 87.4848 67.7702 87.2642 68.0476 86.9364C68.3375 86.6086 68.6527 86.1421 68.9931 85.5369C69.3335 84.9318 69.6992 84.1312 70.09 83.1352C70.4934 82.1266 70.9095 80.8974 71.3381 79.4475C71.7794 77.985 72.227 76.2452 72.6808 74.228C72.6808 74.1901 72.6998 74.1649 72.7376 74.1523C72.788 74.1271 72.8447 74.1145 72.9078 74.1145C73.0717 74.1145 73.2797 74.1334 73.5318 74.1712C73.784 74.1965 74.0235 74.2406 74.2505 74.3036C74.49 74.354 74.6917 74.4171 74.8556 74.4927C75.0321 74.5684 75.1204 74.6503 75.1204 74.7386C75.1204 75.3059 75.0952 75.9237 75.0448 76.5919C74.9943 77.2601 74.9376 77.9535 74.8746 78.6721C74.8115 79.3781 74.7548 80.1031 74.7044 80.8469C74.6539 81.5908 74.6287 82.3283 74.6287 83.0596C74.6287 84.3707 74.6665 85.6252 74.7422 86.8229C74.8304 88.008 74.9439 89.0292 75.0826 89.8865ZM89.7487 75.1357C89.7865 75.2114 89.8054 75.287 89.8054 75.3626C89.818 75.4383 89.8243 75.5265 89.8243 75.6274C89.8243 76.0308 89.61 76.4532 89.1813 76.8945C88.7653 77.3357 88.1034 77.7392 87.1956 78.1048C87.0065 78.1804 86.8363 78.2183 86.685 78.2183C86.4959 78.2183 86.332 78.1678 86.1934 78.067C86.0673 77.9535 86.0042 77.84 86.0042 77.7266C86.0042 77.6509 86.0484 77.5627 86.1366 77.4618C86.2375 77.3609 86.3383 77.2601 86.4392 77.1592C86.5527 77.0584 86.6535 76.9638 86.7418 76.8756C86.8426 76.7873 86.8931 76.718 86.8931 76.6675C86.8931 76.5667 86.8111 76.5162 86.6472 76.5162C86.3951 76.5162 86.0736 76.5919 85.6827 76.7432C85.2919 76.8819 84.8759 77.071 84.4346 77.3105C84.0059 77.5374 83.5647 77.7896 83.1108 78.067C82.6695 78.3317 82.2724 78.5965 81.9194 78.8612C81.5664 79.1134 81.2764 79.3403 81.0495 79.542C80.8351 79.7438 80.728 79.8888 80.728 79.977C80.728 80.0274 80.7784 80.0527 80.8793 80.0527H81.4277C81.7681 80.0527 82.2031 80.0716 82.7326 80.1094C83.2747 80.1472 83.842 80.2229 84.4346 80.3363C85.0272 80.4372 85.6197 80.5885 86.2123 80.7902C86.8174 80.9793 87.3532 81.2378 87.8197 81.5656C88.2988 81.8934 88.6896 82.2905 88.9922 82.757C89.2948 83.2234 89.4461 83.7782 89.4461 84.4212C89.4461 84.749 89.3894 85.102 89.2759 85.4802C89.175 85.8458 88.9859 86.224 88.7086 86.6149C88.4438 86.9931 88.0782 87.3839 87.6117 87.7874C87.1452 88.1782 86.5527 88.569 85.834 88.9599C84.7498 89.5398 83.7349 89.9685 82.7893 90.2458C81.8564 90.5232 81.0117 90.6619 80.2552 90.6619C79.2718 90.6619 78.4964 90.4413 77.9291 90C77.3618 89.5587 77.0781 88.9284 77.0781 88.1089C77.0781 87.5037 77.1916 86.9868 77.4185 86.5581C77.658 86.1295 77.9354 85.7765 78.2506 85.4991C78.5658 85.2091 78.881 85.0011 79.1962 84.875C79.5114 84.7364 79.7509 84.6607 79.9148 84.6481C79.9904 84.6481 80.0535 84.6418 80.1039 84.6292C80.1669 84.6166 80.23 84.6103 80.293 84.6103C80.4065 84.6103 80.4632 84.6796 80.4632 84.8183V85.0074C80.4632 85.0831 80.4821 85.1524 80.52 85.2154C80.5578 85.2659 80.5767 85.3226 80.5767 85.3856C80.5767 85.4613 80.4821 85.5748 80.293 85.726C80.1165 85.8773 79.9211 86.0538 79.7068 86.2556C79.4924 86.4573 79.2907 86.6716 79.1016 86.8985C78.9251 87.1255 78.8369 87.3461 78.8369 87.5604C78.8369 87.8126 79.0386 87.9387 79.442 87.9387C79.9463 87.9387 80.4758 87.8441 81.0306 87.655C81.5979 87.4533 82.1463 87.2011 82.6758 86.8985C83.218 86.596 83.7286 86.2556 84.2077 85.8773C84.6994 85.4865 85.128 85.1083 85.4936 84.7427C85.8593 84.377 86.1492 84.0366 86.3636 83.7214C86.5779 83.3937 86.685 83.1352 86.685 82.9461C86.685 82.7191 86.5527 82.5363 86.2879 82.3977C86.0358 82.259 85.6827 82.1455 85.2289 82.0573C84.7876 81.969 84.2707 81.9123 83.6781 81.887C83.0856 81.8492 82.4615 81.8303 81.8059 81.8303C81.1251 81.8303 80.5578 81.8618 80.1039 81.9249C79.6626 81.9879 79.3916 82.0194 79.2907 82.0194C79.2151 82.0194 79.089 82.0131 78.9125 82.0005C78.7486 81.9753 78.5784 81.9186 78.4019 81.8303C78.238 81.7295 78.093 81.5845 77.9669 81.3954C77.8409 81.2062 77.7778 80.9352 77.7778 80.5822C77.7778 80.3426 77.8282 80.0716 77.9291 79.769C78.0426 79.4664 78.2317 79.1449 78.4964 78.8045C78.7738 78.4515 79.1457 78.0733 79.6122 77.6698C80.0913 77.2664 80.6965 76.844 81.4277 76.4028C82.1968 75.9363 82.9154 75.5581 83.5836 75.2681C84.2644 74.9655 84.8759 74.7323 85.418 74.5684C85.9727 74.4045 86.4581 74.2973 86.8742 74.2469C87.2902 74.1838 87.618 74.1523 87.8575 74.1523C88.4249 74.1523 88.8472 74.228 89.1246 74.3793C89.402 74.5179 89.61 74.7701 89.7487 75.1357Z" fill="#2B7042"/>
</svg>
