<svg width="34" height="34" viewBox="0 0 34 34" fill="none" xmlns="http://www.w3.org/2000/svg">
<path d="M8.50667 6.11111C8.6 7.49556 8.83333 8.84889 9.20667 10.14L7.34 12.0067C6.70222 10.14 6.29778 8.16444 6.15778 6.11111H8.50667ZM23.8444 24.8089C25.1667 25.1822 26.52 25.4156 27.8889 25.5089V27.8267C25.8356 27.6867 23.86 27.2822 21.9778 26.66L23.8444 24.8089ZM10 3H4.55556C3.7 3 3 3.7 3 4.55556C3 19.1622 14.8378 31 29.4444 31C30.3 31 31 30.3 31 29.4444V24.0156C31 23.16 30.3 22.46 29.4444 22.46C27.5156 22.46 25.6333 22.1489 23.8911 21.5733C23.7356 21.5111 23.5644 21.4956 23.4089 21.4956C23.0044 21.4956 22.6156 21.6511 22.3044 21.9467L18.8822 25.3689C14.48 23.1133 10.8711 19.52 8.63111 15.1178L12.0533 11.6956C12.4889 11.26 12.6133 10.6533 12.4422 10.1089C11.8667 8.36667 11.5556 6.5 11.5556 4.55556C11.5556 3.7 10.8556 3 10 3Z" fill="#434343"/>
</svg>
