<svg width="31" height="32" viewBox="0 0 31 32" fill="none" xmlns="http://www.w3.org/2000/svg">
<path d="M20.0562 2.97655C22.1559 3.54004 24.0703 4.64588 25.6075 6.18307C27.1447 7.72027 28.2506 9.63475 28.8141 11.7344" stroke="#00CC22" stroke-width="1.85678" stroke-linecap="round" stroke-linejoin="round"/>
<path d="M18.772 7.75776C20.0348 8.09314 21.1865 8.75638 22.1104 9.68027C23.0342 10.6042 23.6975 11.7559 24.0329 13.0187" stroke="#00CC22" stroke-width="1.85678" stroke-linecap="round" stroke-linejoin="round"/>
<path d="M9.70468 16.0978C10.9785 18.7283 13.1055 20.8499 15.7392 22.1169C15.9335 22.2089 16.1484 22.2487 16.3627 22.2324C16.5771 22.2161 16.7835 22.1443 16.9616 22.0241L20.8299 19.44C21.0008 19.3241 21.1983 19.2534 21.4039 19.2344C21.6096 19.2155 21.8167 19.249 22.0059 19.3317L29.2473 22.4418C29.4948 22.5448 29.7016 22.7264 29.8358 22.9584C29.97 23.1905 30.0242 23.4602 29.99 23.7261C29.7605 25.5175 28.8861 27.1639 27.5305 28.3572C26.1748 29.5505 24.4308 30.209 22.6248 30.2094C17.0437 30.2094 11.6912 27.9923 7.74476 24.0459C3.79833 20.0994 1.58125 14.7469 1.58125 9.16583C1.58165 7.35979 2.24012 5.61578 3.43343 4.26014C4.62674 2.90449 6.27312 2.0301 8.06452 1.80058C8.33041 1.76643 8.60015 1.82063 8.83221 1.95483C9.06427 2.08904 9.24578 2.2958 9.34879 2.5433L12.4589 9.80023C12.5398 9.98644 12.5736 10.1897 12.5574 10.3921C12.5412 10.5944 12.4755 10.7897 12.3661 10.9607L9.78204 14.8909C9.667 15.0687 9.59948 15.273 9.58593 15.4843C9.57239 15.6956 9.61327 15.9068 9.70468 16.0978Z" stroke="#00CC22" stroke-width="1.85678" stroke-linecap="round" stroke-linejoin="round"/>
</svg>
