<svg width="39" height="39" viewBox="0 0 39 39" fill="none" xmlns="http://www.w3.org/2000/svg">
<path d="M26.9928 11.1229C26.9928 15.0856 23.7603 18.2997 19.7721 18.2997C17.6227 18.2997 15.6914 17.3653 14.3689 15.8837C13.2379 14.6168 12.5508 12.9493 12.5508 11.1229C12.5508 7.15898 15.7839 3.9455 19.7715 3.9455C23.7603 3.9455 26.9928 7.15898 26.9928 11.1229Z" stroke="black" stroke-width="1.02544" stroke-miterlimit="10"/>
<path d="M32.1107 29.8669C32.0609 29.7666 32.0098 29.6663 31.958 29.5672C29.6592 25.211 25.0653 22.2374 19.7721 22.2374C12.1794 22.2374 6.02301 28.3563 6.02301 35.9029H33.5212C33.5212 34.5942 33.3362 33.3267 32.9907 32.1286" stroke="black" stroke-width="1.02544" stroke-miterlimit="10" stroke-linecap="round" stroke-linejoin="round"/>
</svg>
