<svg width="39" height="39" viewBox="0 0 39 39" fill="none" xmlns="http://www.w3.org/2000/svg">
<path d="M27.5217 26.5488C27.6448 26.4278 27.786 26.3336 27.9333 26.2523L25.6372 23.9942C25.4405 23.8008 25.1207 23.8008 24.924 23.9942C24.7273 24.1886 24.7273 24.502 24.924 24.6963L27.215 26.9484C27.3018 26.8066 27.3986 26.6688 27.5217 26.5488Z" fill="#263238"/>
<path d="M32.4791 33.9011C31.8062 33.9011 31.1727 33.6433 30.6955 33.1752L27.1646 29.7043C26.6884 29.2352 26.4261 28.6134 26.4261 27.951C26.4261 27.2886 26.6884 26.6668 27.1646 26.1977C28.0786 25.2992 29.8168 25.2992 30.7308 26.1977L34.2617 29.6686C34.7389 30.1377 35.0012 30.7594 35.0012 31.4219C35.0012 32.0843 34.7389 32.7061 34.2627 33.1752C33.7865 33.6442 33.152 33.9011 32.4791 33.9011ZM28.9482 26.4833C28.5376 26.4833 28.1482 26.6341 27.8778 26.8998C27.5923 27.1805 27.435 27.5543 27.435 27.951C27.435 28.3477 27.5923 28.7215 27.8778 29.0032L31.4087 32.4741C31.9807 33.0354 32.9764 33.0354 33.5485 32.4741C33.835 32.1924 33.9923 31.8186 33.9923 31.4219C33.9923 31.0252 33.835 30.6514 33.5495 30.3697L30.0186 26.8988C29.7482 26.6341 29.3588 26.4833 28.9482 26.4833Z" fill="#263238"/>
<path d="M16.8423 25.4223C16.5638 25.4223 16.3379 25.2001 16.3379 24.9264C16.3379 24.6527 16.5638 24.4306 16.8423 24.4306C20.6425 24.4306 23.9394 22.0466 25.047 18.4993C25.1288 18.2375 25.4112 18.0878 25.6776 18.1711C25.9439 18.2514 26.0942 18.5281 26.0125 18.7899C24.7726 22.7576 21.0884 25.4223 16.8423 25.4223Z" fill="#263238"/>
<path d="M16.8423 27.9511C10.1669 27.9511 4.73636 22.6128 4.73636 16.0509C4.73636 9.48892 10.1669 4.1507 16.8423 4.1507C23.5177 4.1507 28.9482 9.48892 28.9482 16.0509C28.9482 22.6128 23.5177 27.9511 16.8423 27.9511ZM16.8423 5.14238C10.7237 5.14238 5.74518 10.0363 5.74518 16.0509C5.74518 22.0654 10.7237 26.9594 16.8423 26.9594C22.9608 26.9594 27.9393 22.0654 27.9393 16.0509C27.9393 10.0363 22.9608 5.14238 16.8423 5.14238Z" fill="#263238"/>
<path d="M25.9217 16.5467C26.2003 16.5467 26.4261 16.3247 26.4261 16.0509C26.4261 15.777 26.2003 15.5551 25.9217 15.5551C25.6431 15.5551 25.4173 15.777 25.4173 16.0509C25.4173 16.3247 25.6431 16.5467 25.9217 16.5467Z" fill="#263238"/>
</svg>
