<svg width="29" height="30" viewBox="0 0 29 30" fill="none" xmlns="http://www.w3.org/2000/svg">
<g clip-path="url(#clip0_218_182)">
<path fill-rule="evenodd" clip-rule="evenodd" d="M20.5059 17.8051C20.156 17.6299 18.4356 16.7835 18.1149 16.6666C17.7942 16.5499 17.561 16.4916 17.3277 16.8418C17.0944 17.192 16.4238 17.9802 16.2197 18.2138C16.0156 18.4473 15.8115 18.4766 15.4616 18.3013C15.1117 18.1262 13.9842 17.7568 12.6477 16.5646C11.6076 15.6368 10.9053 14.4909 10.7012 14.1406C10.4971 13.7903 10.6794 13.601 10.8546 13.4265C11.0121 13.2698 11.2046 13.0178 11.3795 12.8135C11.5545 12.6092 11.6128 12.4632 11.7294 12.2298C11.846 11.9962 11.7877 11.7919 11.7002 11.6168C11.6128 11.4417 10.913 9.71933 10.6214 9.01861C10.3373 8.33641 10.0489 8.42881 9.83411 8.41798C9.63025 8.40788 9.39668 8.40573 9.1635 8.40573C8.93025 8.40573 8.55111 8.4933 8.23037 8.84349C7.90967 9.19379 7.00576 10.0404 7.00576 11.7626C7.00576 13.485 8.25953 15.1487 8.43449 15.3823C8.60945 15.6158 10.9018 19.1501 14.412 20.6657C15.2467 21.0263 15.8986 21.2416 16.4067 21.4028C17.2449 21.6691 18.0077 21.6316 18.6106 21.5414C19.2829 21.4411 20.6808 20.695 20.9724 19.8778C21.2639 19.0603 21.2639 18.3597 21.1765 18.2138C21.089 18.0678 20.8558 17.9802 20.5059 17.8051ZM14.1214 26.5224H14.1167C12.0281 26.5216 9.97962 25.9604 8.19257 24.9L7.76751 24.6477L3.36228 25.8033L4.53811 21.5082L4.26141 21.0678C3.09625 19.2147 2.48084 17.0728 2.48178 14.8735C2.48436 8.45605 7.70582 3.23503 14.1261 3.23503C17.2349 3.23607 20.1573 4.44837 22.3549 6.64846C24.5525 8.84849 25.762 11.7729 25.7608 14.8829C25.7582 21.3008 20.5367 26.5224 14.1214 26.5224ZM24.0275 4.97671C21.3835 2.32975 17.8675 0.871358 14.1213 0.86982C6.40255 0.86982 0.120466 7.15152 0.117335 14.8726C0.116346 17.3408 0.761139 19.7498 1.98667 21.8736L0 29.1302L7.42358 27.1829C9.46903 28.2986 11.7719 28.8866 14.1157 28.8874H14.1215C21.8394 28.8874 28.122 22.605 28.1252 14.8838C28.1267 11.142 26.6713 7.62367 24.0275 4.97671Z" fill="url(#paint0_linear_218_182)"/>
</g>
<defs>
<linearGradient id="paint0_linear_218_182" x1="14.0626" y1="2.6361" x2="14.0626" y2="29.4879" gradientUnits="userSpaceOnUse">
<stop stop-color="#1DF47C"/>
<stop offset="0.31" stop-color="#12DF63"/>
<stop offset="0.75" stop-color="#05C443"/>
<stop offset="1" stop-color="#00BA37"/>
</linearGradient>
<clipPath id="clip0_218_182">
<rect width="28.1252" height="28.1252" fill="white" transform="translate(0 0.937386)"/>
</clipPath>
</defs>
</svg>
